<svg width="84" height="21" viewBox="0 0 84 21" fill="none" xmlns="http://www.w3.org/2000/svg">
<path d="M4.188 17.188C4.188 17.356 4.14933 17.5053 4.072 17.636C3.99467 17.764 3.88133 17.864 3.732 17.936C3.58267 18.008 3.40533 18.044 3.2 18.044C2.91467 18.044 2.67067 17.9773 2.468 17.844C2.26533 17.7107 2.132 17.5333 2.068 17.312L2.356 17.144C2.428 17.328 2.53467 17.4693 2.676 17.568C2.81733 17.6667 2.99333 17.716 3.204 17.716C3.396 17.716 3.54533 17.6733 3.652 17.588C3.75867 17.5027 3.812 17.384 3.812 17.232C3.812 17.1093 3.77867 17.0107 3.712 16.936C3.64533 16.8587 3.56267 16.7987 3.464 16.756C3.368 16.7133 3.23467 16.6667 3.064 16.616C2.87467 16.56 2.72133 16.5067 2.604 16.456C2.48933 16.4053 2.392 16.3293 2.312 16.228C2.232 16.1267 2.192 15.9933 2.192 15.828C2.192 15.66 2.23467 15.516 2.32 15.396C2.40533 15.2733 2.52267 15.1813 2.672 15.12C2.824 15.056 2.99333 15.024 3.18 15.024C3.44133 15.024 3.652 15.0813 3.812 15.196C3.97467 15.3107 4.084 15.456 4.14 15.632L3.852 15.8C3.79067 15.6587 3.70533 15.548 3.596 15.468C3.48933 15.388 3.34667 15.348 3.168 15.348C2.98667 15.348 2.84133 15.3893 2.732 15.472C2.62267 15.552 2.568 15.66 2.568 15.796C2.568 15.8973 2.59733 15.98 2.656 16.044C2.71733 16.108 2.79333 16.1587 2.884 16.196C2.97467 16.2333 3.09867 16.2747 3.256 16.32C3.456 16.3787 3.61733 16.436 3.74 16.492C3.86267 16.548 3.968 16.632 4.056 16.744C4.144 16.856 4.188 17.004 4.188 17.188ZM6.36497 16.644H5.07697V17.684H6.56097V18H4.72097V15.068H6.51697V15.384H5.07697V16.328H6.36497V16.644ZM9.40378 18H8.96778L8.11978 16.8H8.08378H7.53978V18H7.18378V15.072H8.08378C8.28378 15.072 8.46111 15.108 8.61578 15.18C8.77311 15.252 8.89445 15.3547 8.97978 15.488C9.06778 15.6187 9.11178 15.7693 9.11178 15.94C9.11178 16.132 9.05711 16.2987 8.94778 16.44C8.83845 16.5787 8.68778 16.6787 8.49578 16.74L9.40378 18ZM7.53978 15.384V16.488H8.03978C8.26645 16.488 8.43845 16.4387 8.55578 16.34C8.67578 16.2387 8.73578 16.1053 8.73578 15.94C8.73578 15.7747 8.67578 15.6413 8.55578 15.54C8.43845 15.436 8.26645 15.384 8.03978 15.384H7.53978ZM9.80462 15.072L10.7366 17.524L11.6246 15.072H11.9846L10.8726 18H10.5726L9.40862 15.072H9.80462ZM12.7974 18H12.4414V15.072H12.7974V18ZM14.7482 17.716C15.0682 17.716 15.3029 17.568 15.4522 17.272L15.7402 17.44C15.6576 17.6293 15.5296 17.7773 15.3562 17.884C15.1829 17.9907 14.9829 18.044 14.7562 18.044C14.5082 18.044 14.2829 17.98 14.0802 17.852C13.8776 17.724 13.7176 17.5453 13.6002 17.316C13.4829 17.0867 13.4242 16.8253 13.4242 16.532C13.4242 16.2387 13.4829 15.9773 13.6002 15.748C13.7176 15.5187 13.8776 15.3413 14.0802 15.216C14.2829 15.088 14.5082 15.024 14.7562 15.024C14.9829 15.024 15.1829 15.0773 15.3562 15.184C15.5296 15.2907 15.6576 15.4387 15.7402 15.628L15.4522 15.796C15.3029 15.5 15.0682 15.352 14.7482 15.352C14.5616 15.352 14.3962 15.4013 14.2522 15.5C14.1082 15.5987 13.9962 15.7373 13.9162 15.916C13.8389 16.0947 13.8002 16.3 13.8002 16.532C13.8002 16.764 13.8389 16.9707 13.9162 17.152C13.9962 17.3307 14.1082 17.4693 14.2522 17.568C14.3962 17.6667 14.5616 17.716 14.7482 17.716ZM17.9017 16.644H16.6137V17.684H18.0977V18H16.2577V15.068H18.0537V15.384H16.6137V16.328H17.9017V16.644ZM20.5605 17.188C20.5605 17.356 20.5218 17.5053 20.4445 17.636C20.3672 17.764 20.2538 17.864 20.1045 17.936C19.9552 18.008 19.7778 18.044 19.5725 18.044C19.2872 18.044 19.0432 17.9773 18.8405 17.844C18.6378 17.7107 18.5045 17.5333 18.4405 17.312L18.7285 17.144C18.8005 17.328 18.9072 17.4693 19.0485 17.568C19.1898 17.6667 19.3658 17.716 19.5765 17.716C19.7685 17.716 19.9178 17.6733 20.0245 17.588C20.1312 17.5027 20.1845 17.384 20.1845 17.232C20.1845 17.1093 20.1512 17.0107 20.0845 16.936C20.0178 16.8587 19.9352 16.7987 19.8365 16.756C19.7405 16.7133 19.6072 16.6667 19.4365 16.616C19.2472 16.56 19.0938 16.5067 18.9765 16.456C18.8618 16.4053 18.7645 16.3293 18.6845 16.228C18.6045 16.1267 18.5645 15.9933 18.5645 15.828C18.5645 15.66 18.6072 15.516 18.6925 15.396C18.7778 15.2733 18.8952 15.1813 19.0445 15.12C19.1965 15.056 19.3658 15.024 19.5525 15.024C19.8138 15.024 20.0245 15.0813 20.1845 15.196C20.3472 15.3107 20.4565 15.456 20.5125 15.632L20.2245 15.8C20.1632 15.6587 20.0778 15.548 19.9685 15.468C19.8618 15.388 19.7192 15.348 19.5405 15.348C19.3592 15.348 19.2138 15.3893 19.1045 15.472C18.9952 15.552 18.9405 15.66 18.9405 15.796C18.9405 15.8973 18.9698 15.98 19.0285 16.044C19.0898 16.108 19.1658 16.1587 19.2565 16.196C19.3472 16.2333 19.4712 16.2747 19.6285 16.32C19.8285 16.3787 19.9898 16.436 20.1125 16.492C20.2352 16.548 20.3405 16.632 20.4285 16.744C20.5165 16.856 20.5605 17.004 20.5605 17.188ZM23.0276 14.76L23.3556 14.288H23.7316L23.3276 14.76H23.0276ZM23.8956 16.644H22.6076V17.684H24.0916V18H22.2516V15.068H24.0476V15.384H22.6076V16.328H23.8956V16.644ZM25.5144 15.072C25.7997 15.072 26.0557 15.1293 26.2824 15.244C26.5117 15.3587 26.6917 15.5267 26.8224 15.748C26.9531 15.9667 27.0184 16.228 27.0184 16.532C27.0184 16.8387 26.9531 17.1027 26.8224 17.324C26.6944 17.5427 26.5157 17.7107 26.2864 17.828C26.0597 17.9427 25.8024 18 25.5144 18H24.7144V15.072H25.5144ZM25.4664 17.684C25.8344 17.684 26.1224 17.584 26.3304 17.384C26.5384 17.184 26.6424 16.9 26.6424 16.532C26.6424 16.1693 26.5371 15.888 26.3264 15.688C26.1184 15.4853 25.8317 15.384 25.4664 15.384H25.0704V17.684H25.4664ZM29.5499 15.072H29.9059V16.816C29.9059 17.0667 29.8605 17.2853 29.7699 17.472C29.6792 17.656 29.5472 17.7973 29.3739 17.896C29.2032 17.9947 28.9992 18.044 28.7619 18.044C28.4045 18.044 28.1245 17.9347 27.9219 17.716C27.7219 17.4973 27.6219 17.1973 27.6219 16.816V15.072H27.9779V16.76C27.9779 17.0693 28.0445 17.3067 28.1779 17.472C28.3112 17.6347 28.5059 17.716 28.7619 17.716C29.0179 17.716 29.2125 17.6347 29.3459 17.472C29.4819 17.3067 29.5499 17.0693 29.5499 16.76V15.072ZM31.8317 17.716C32.1517 17.716 32.3863 17.568 32.5357 17.272L32.8237 17.44C32.741 17.6293 32.613 17.7773 32.4397 17.884C32.2663 17.9907 32.0663 18.044 31.8397 18.044C31.5917 18.044 31.3663 17.98 31.1637 17.852C30.961 17.724 30.801 17.5453 30.6837 17.316C30.5663 17.0867 30.5077 16.8253 30.5077 16.532C30.5077 16.2387 30.5663 15.9773 30.6837 15.748C30.801 15.5187 30.961 15.3413 31.1637 15.216C31.3663 15.088 31.5917 15.024 31.8397 15.024C32.0663 15.024 32.2663 15.0773 32.4397 15.184C32.613 15.2907 32.741 15.4387 32.8237 15.628L32.5357 15.796C32.3863 15.5 32.1517 15.352 31.8317 15.352C31.645 15.352 31.4797 15.4013 31.3357 15.5C31.1917 15.5987 31.0797 15.7373 30.9997 15.916C30.9223 16.0947 30.8837 16.3 30.8837 16.532C30.8837 16.764 30.9223 16.9707 30.9997 17.152C31.0797 17.3307 31.1917 17.4693 31.3357 17.568C31.4797 17.6667 31.645 17.716 31.8317 17.716ZM34.4451 15.072L35.6211 18H35.2251L34.9011 17.16H33.6891L33.3811 18H33.0211L34.1451 15.072H34.4451ZM34.7771 16.84L34.2811 15.548L33.8091 16.84H34.7771ZM35.4571 15.072H37.6331V15.388H36.7211V18H36.3651V15.388H35.4571V15.072ZM38.4665 18H38.1105V15.072H38.4665V18ZM39.2413 15.072H41.0373V15.388H39.5973V16.376H40.8853V16.692H39.5973V18H39.2413V15.072ZM43.423 17.188C43.423 17.356 43.3843 17.5053 43.307 17.636C43.2297 17.764 43.1163 17.864 42.967 17.936C42.8177 18.008 42.6403 18.044 42.435 18.044C42.1497 18.044 41.9057 17.9773 41.703 17.844C41.5003 17.7107 41.367 17.5333 41.303 17.312L41.591 17.144C41.663 17.328 41.7697 17.4693 41.911 17.568C42.0523 17.6667 42.2283 17.716 42.439 17.716C42.631 17.716 42.7803 17.6733 42.887 17.588C42.9937 17.5027 43.047 17.384 43.047 17.232C43.047 17.1093 43.0137 17.0107 42.947 16.936C42.8803 16.8587 42.7977 16.7987 42.699 16.756C42.603 16.7133 42.4697 16.6667 42.299 16.616C42.1097 16.56 41.9563 16.5067 41.839 16.456C41.7243 16.4053 41.627 16.3293 41.547 16.228C41.467 16.1267 41.427 15.9933 41.427 15.828C41.427 15.66 41.4697 15.516 41.555 15.396C41.6403 15.2733 41.7577 15.1813 41.907 15.12C42.059 15.056 42.2283 15.024 42.415 15.024C42.6763 15.024 42.887 15.0813 43.047 15.196C43.2097 15.3107 43.319 15.456 43.375 15.632L43.087 15.8C43.0257 15.6587 42.9403 15.548 42.831 15.468C42.7243 15.388 42.5817 15.348 42.403 15.348C42.2217 15.348 42.0763 15.3893 41.967 15.472C41.8577 15.552 41.803 15.66 41.803 15.796C41.803 15.8973 41.8323 15.98 41.891 16.044C41.9523 16.108 42.0283 16.1587 42.119 16.196C42.2097 16.2333 42.3337 16.2747 42.491 16.32C42.691 16.3787 42.8523 16.436 42.975 16.492C43.0977 16.548 43.203 16.632 43.291 16.744C43.379 16.856 43.423 17.004 43.423 17.188ZM47.6421 18H47.1781L46.8221 17.604C46.5768 17.8973 46.2728 18.044 45.9101 18.044C45.7341 18.044 45.5741 18.0107 45.4301 17.944C45.2861 17.8773 45.1714 17.7787 45.0861 17.648C45.0008 17.5173 44.9581 17.3627 44.9581 17.184C44.9581 16.96 45.0181 16.7787 45.1381 16.64C45.2581 16.5013 45.4234 16.3773 45.6341 16.268C45.5194 16.132 45.4381 16.0147 45.3901 15.916C45.3421 15.8147 45.3181 15.708 45.3181 15.596C45.3181 15.452 45.3528 15.3293 45.4221 15.228C45.4941 15.124 45.5888 15.0453 45.7061 14.992C45.8234 14.9387 45.9528 14.912 46.0941 14.912C46.2434 14.912 46.3728 14.9413 46.4821 15C46.5941 15.056 46.6794 15.1333 46.7381 15.232C46.7994 15.3307 46.8301 15.4427 46.8301 15.568C46.8301 15.6933 46.7994 15.8013 46.7381 15.892C46.6768 15.9827 46.5994 16.06 46.5061 16.124C46.4128 16.1853 46.2914 16.2533 46.1421 16.328L46.7941 17.052C46.8981 16.82 46.9648 16.5573 46.9941 16.264H47.3381C47.2794 16.6773 47.1741 17.0253 47.0221 17.308L47.6421 18ZM45.6901 15.592C45.6901 15.6667 45.7101 15.7427 45.7501 15.82C45.7901 15.8973 45.8581 15.9933 45.9541 16.108C46.1194 16.0253 46.2448 15.9453 46.3301 15.868C46.4154 15.788 46.4581 15.6893 46.4581 15.572C46.4581 15.4733 46.4261 15.392 46.3621 15.328C46.3008 15.264 46.2101 15.232 46.0901 15.232C45.9701 15.232 45.8728 15.2653 45.7981 15.332C45.7261 15.396 45.6901 15.4827 45.6901 15.592ZM45.9261 17.724C46.1954 17.724 46.4234 17.604 46.6101 17.364L45.8261 16.488C45.6688 16.5787 45.5461 16.676 45.4581 16.78C45.3728 16.884 45.3301 17.0147 45.3301 17.172C45.3301 17.3507 45.3861 17.488 45.4981 17.584C45.6101 17.6773 45.7528 17.724 45.9261 17.724ZM50.0764 15.072C50.2738 15.072 50.4498 15.1107 50.6044 15.188C50.7618 15.2653 50.8844 15.3733 50.9724 15.512C51.0604 15.648 51.1044 15.804 51.1044 15.98C51.1044 16.156 51.0604 16.3133 50.9724 16.452C50.8871 16.588 50.7658 16.6947 50.6084 16.772C50.4538 16.8467 50.2764 16.884 50.0764 16.884H49.5324V18H49.1764V15.072H50.0764ZM50.0324 16.572C50.2564 16.572 50.4284 16.5173 50.5484 16.408C50.6684 16.296 50.7284 16.1533 50.7284 15.98C50.7284 15.8067 50.6684 15.664 50.5484 15.552C50.4284 15.44 50.2564 15.384 50.0324 15.384H49.5324V16.572H50.0324ZM52.4074 14.76L52.7354 14.288H53.1114L52.7074 14.76H52.4074ZM53.2754 16.644H51.9874V17.684H53.4714V18H51.6314V15.068H53.4274V15.384H51.9874V16.328H53.2754V16.644ZM54.8943 15.072C55.1796 15.072 55.4356 15.1293 55.6623 15.244C55.8916 15.3587 56.0716 15.5267 56.2023 15.748C56.3329 15.9667 56.3983 16.228 56.3983 16.532C56.3983 16.8387 56.3329 17.1027 56.2023 17.324C56.0743 17.5427 55.8956 17.7107 55.6663 17.828C55.4396 17.9427 55.1823 18 54.8943 18H54.0943V15.072H54.8943ZM54.8463 17.684C55.2143 17.684 55.5023 17.584 55.7103 17.384C55.9183 17.184 56.0223 16.9 56.0223 16.532C56.0223 16.1693 55.9169 15.888 55.7063 15.688C55.4983 15.4853 55.2116 15.384 54.8463 15.384H54.4503V17.684H54.8463ZM58.0009 15.072L59.1769 18H58.7809L58.4569 17.16H57.2449L56.9369 18H56.5769L57.7009 15.072H58.0009ZM58.3329 16.84L57.8369 15.548L57.3649 16.84H58.3329ZM60.7883 16.788V16.468H61.7643V17.608C61.679 17.7333 61.547 17.8373 61.3683 17.92C61.1897 18.0027 60.9883 18.044 60.7643 18.044C60.495 18.044 60.2523 17.9813 60.0363 17.856C59.823 17.728 59.655 17.5493 59.5323 17.32C59.4123 17.088 59.3523 16.824 59.3523 16.528C59.3523 16.2347 59.4123 15.9747 59.5323 15.748C59.655 15.5187 59.8217 15.3413 60.0323 15.216C60.2457 15.088 60.4817 15.024 60.7403 15.024C60.9697 15.024 61.1737 15.0733 61.3523 15.172C61.5337 15.2707 61.6657 15.408 61.7483 15.584L61.4603 15.752C61.3963 15.632 61.3003 15.536 61.1723 15.464C61.0443 15.3893 60.895 15.352 60.7243 15.352C60.5297 15.352 60.3563 15.4013 60.2043 15.5C60.055 15.5987 59.9377 15.7373 59.8523 15.916C59.7697 16.092 59.7283 16.296 59.7283 16.528C59.7283 16.7627 59.7723 16.9707 59.8603 17.152C59.9483 17.3307 60.0723 17.4693 60.2323 17.568C60.3923 17.6667 60.5777 17.716 60.7883 17.716C61.0603 17.716 61.267 17.6413 61.4083 17.492V16.788H60.7883ZM62.2331 16.532C62.2331 16.2307 62.2905 15.9653 62.4051 15.736C62.5198 15.5067 62.6771 15.3307 62.8771 15.208C63.0798 15.0853 63.3065 15.024 63.5571 15.024C63.8078 15.024 64.0331 15.0867 64.2331 15.212C64.4358 15.3347 64.5945 15.5107 64.7091 15.74C64.8238 15.9667 64.8811 16.2307 64.8811 16.532C64.8811 16.836 64.8225 17.1027 64.7051 17.332C64.5905 17.5587 64.4331 17.7347 64.2331 17.86C64.0331 17.9827 63.8078 18.044 63.5571 18.044C63.3065 18.044 63.0798 17.9827 62.8771 17.86C62.6771 17.7373 62.5198 17.5613 62.4051 17.332C62.2905 17.1027 62.2331 16.836 62.2331 16.532ZM62.6091 16.532C62.6091 16.764 62.6465 16.9693 62.7211 17.148C62.7985 17.3267 62.9091 17.4667 63.0531 17.568C63.1971 17.6667 63.3651 17.716 63.5571 17.716C63.7491 17.716 63.9158 17.6667 64.0571 17.568C64.2011 17.4667 64.3118 17.3267 64.3891 17.148C64.4665 16.9693 64.5051 16.764 64.5051 16.532C64.5051 16.2973 64.4665 16.0907 64.3891 15.912C64.3118 15.7333 64.2011 15.5947 64.0571 15.496C63.9158 15.3973 63.7491 15.348 63.5571 15.348C63.3651 15.348 63.1971 15.3973 63.0531 15.496C62.9118 15.5947 62.8025 15.7333 62.7251 15.912C62.6478 16.0907 62.6091 16.2973 62.6091 16.532ZM66.7999 16.788V16.468H67.7759V17.608C67.6906 17.7333 67.5586 17.8373 67.3799 17.92C67.2012 18.0027 66.9999 18.044 66.7759 18.044C66.5066 18.044 66.2639 17.9813 66.0479 17.856C65.8346 17.728 65.6666 17.5493 65.5439 17.32C65.4239 17.088 65.3639 16.824 65.3639 16.528C65.3639 16.2347 65.4239 15.9747 65.5439 15.748C65.6666 15.5187 65.8332 15.3413 66.0439 15.216C66.2572 15.088 66.4932 15.024 66.7519 15.024C66.9812 15.024 67.1852 15.0733 67.3639 15.172C67.5452 15.2707 67.6772 15.408 67.7599 15.584L67.4719 15.752C67.4079 15.632 67.3119 15.536 67.1839 15.464C67.0559 15.3893 66.9066 15.352 66.7359 15.352C66.5412 15.352 66.3679 15.4013 66.2159 15.5C66.0666 15.5987 65.9492 15.7373 65.8639 15.916C65.7812 16.092 65.7399 16.296 65.7399 16.528C65.7399 16.7627 65.7839 16.9707 65.8719 17.152C65.9599 17.3307 66.0839 17.4693 66.2439 17.568C66.4039 17.6667 66.5892 17.716 66.7999 17.716C67.0719 17.716 67.2786 17.6413 67.4199 17.492V16.788H66.7999ZM68.7487 18H68.3927V15.072H68.7487V18ZM72.2555 18.608H71.7195L70.9515 18.02C70.8688 18.036 70.7848 18.044 70.6995 18.044C70.4488 18.044 70.2221 17.9827 70.0195 17.86C69.8195 17.7373 69.6621 17.5613 69.5475 17.332C69.4328 17.1027 69.3755 16.836 69.3755 16.532C69.3755 16.2307 69.4328 15.9653 69.5475 15.736C69.6621 15.5067 69.8195 15.3307 70.0195 15.208C70.2221 15.0853 70.4488 15.024 70.6995 15.024C70.9501 15.024 71.1755 15.0867 71.3755 15.212C71.5781 15.3347 71.7368 15.5107 71.8515 15.74C71.9661 15.9667 72.0235 16.2307 72.0235 16.532C72.0235 16.8467 71.9608 17.1213 71.8355 17.356C71.7128 17.588 71.5448 17.764 71.3315 17.884L72.2555 18.608ZM69.7515 16.532C69.7515 16.764 69.7888 16.9693 69.8635 17.148C69.9408 17.3267 70.0515 17.4667 70.1955 17.568C70.3395 17.6667 70.5075 17.716 70.6995 17.716C70.8915 17.716 71.0581 17.6667 71.1995 17.568C71.3435 17.4667 71.4541 17.3267 71.5315 17.148C71.6088 16.9693 71.6475 16.764 71.6475 16.532C71.6475 16.2973 71.6088 16.0907 71.5315 15.912C71.4541 15.7333 71.3435 15.5947 71.1995 15.496C71.0581 15.3973 70.8915 15.348 70.6995 15.348C70.5075 15.348 70.3395 15.3973 70.1955 15.496C70.0541 15.5947 69.9448 15.7333 69.8675 15.912C69.7901 16.0907 69.7515 16.2973 69.7515 16.532ZM74.5543 15.072H74.9103V16.816C74.9103 17.0667 74.8649 17.2853 74.7743 17.472C74.6836 17.656 74.5516 17.7973 74.3783 17.896C74.2076 17.9947 74.0036 18.044 73.7663 18.044C73.4089 18.044 73.1289 17.9347 72.9263 17.716C72.7263 17.4973 72.6263 17.1973 72.6263 16.816V15.072H72.9823V16.76C72.9823 17.0693 73.0489 17.3067 73.1823 17.472C73.3156 17.6347 73.5103 17.716 73.7663 17.716C74.0223 17.716 74.2169 17.6347 74.3503 17.472C74.4863 17.3067 74.5543 17.0693 74.5543 16.76V15.072ZM77.304 16.644H76.016V17.684H77.5V18H75.66V15.068H77.456V15.384H76.016V16.328H77.304V16.644ZM79.9628 17.188C79.9628 17.356 79.9242 17.5053 79.8468 17.636C79.7695 17.764 79.6562 17.864 79.5068 17.936C79.3575 18.008 79.1802 18.044 78.9748 18.044C78.6895 18.044 78.4455 17.9773 78.2428 17.844C78.0402 17.7107 77.9068 17.5333 77.8428 17.312L78.1308 17.144C78.2028 17.328 78.3095 17.4693 78.4508 17.568C78.5922 17.6667 78.7682 17.716 78.9788 17.716C79.1708 17.716 79.3202 17.6733 79.4268 17.588C79.5335 17.5027 79.5868 17.384 79.5868 17.232C79.5868 17.1093 79.5535 17.0107 79.4868 16.936C79.4202 16.8587 79.3375 16.7987 79.2388 16.756C79.1428 16.7133 79.0095 16.6667 78.8388 16.616C78.6495 16.56 78.4962 16.5067 78.3788 16.456C78.2642 16.4053 78.1668 16.3293 78.0868 16.228C78.0068 16.1267 77.9668 15.9933 77.9668 15.828C77.9668 15.66 78.0095 15.516 78.0948 15.396C78.1802 15.2733 78.2975 15.1813 78.4468 15.12C78.5988 15.056 78.7682 15.024 78.9548 15.024C79.2162 15.024 79.4268 15.0813 79.5868 15.196C79.7495 15.3107 79.8588 15.456 79.9148 15.632L79.6268 15.8C79.5655 15.6587 79.4802 15.548 79.3708 15.468C79.2642 15.388 79.1215 15.348 78.9428 15.348C78.7615 15.348 78.6162 15.3893 78.5068 15.472C78.3975 15.552 78.3428 15.66 78.3428 15.796C78.3428 15.8973 78.3722 15.98 78.4308 16.044C78.4922 16.108 78.5682 16.1587 78.6588 16.196C78.7495 16.2333 78.8735 16.2747 79.0308 16.32C79.2308 16.3787 79.3922 16.436 79.5148 16.492C79.6375 16.548 79.7428 16.632 79.8308 16.744C79.9188 16.856 79.9628 17.004 79.9628 17.188Z" fill="white"/>
<line x1="2" y1="11.6" x2="82" y2="11.6" stroke="#828282" stroke-width="0.8"/>
<path d="M5.36 3.144L7.728 9H6.496L5.984 7.664H3.704L3.208 9H2.048L4.344 3.144H5.36ZM5.608 6.672L4.824 4.616L4.064 6.672H5.608ZM10.5575 8.032C10.8402 8.032 11.0828 7.95733 11.2855 7.808C11.4935 7.65867 11.6588 7.45067 11.7815 7.184L12.7495 7.744C12.6055 8.13867 12.3415 8.464 11.9575 8.72C11.5735 8.97067 11.1148 9.096 10.5815 9.096C10.0642 9.096 9.59217 8.97067 9.1655 8.72C8.73883 8.46933 8.40017 8.11467 8.1495 7.656C7.89883 7.192 7.7735 6.66133 7.7735 6.064C7.7735 5.46667 7.89617 4.93867 8.1415 4.48C8.39217 4.02133 8.73083 3.66667 9.1575 3.416C9.5895 3.16533 10.0642 3.04 10.5815 3.04C11.1148 3.04 11.5735 3.168 11.9575 3.424C12.3415 3.67467 12.6055 3.99733 12.7495 4.392L11.7815 4.952C11.6588 4.68533 11.4935 4.47733 11.2855 4.328C11.0828 4.17867 10.8402 4.104 10.5575 4.104C10.2588 4.104 9.99217 4.184 9.7575 4.344C9.52283 4.504 9.33617 4.73333 9.1975 5.032C9.06417 5.32533 8.9975 5.66933 8.9975 6.064C8.9975 6.45867 9.06417 6.80533 9.1975 7.104C9.33617 7.40267 9.52283 7.632 9.7575 7.792C9.99217 7.952 10.2588 8.032 10.5575 8.032ZM16.2428 3.144L18.6108 9H17.3788L16.8668 7.664H14.5868L14.0908 9H12.9308L15.2268 3.144H16.2428ZM16.4908 6.672L15.7068 4.616L14.9468 6.672H16.4908ZM21.2321 3.144C21.8027 3.144 22.3174 3.25867 22.7761 3.488C23.2401 3.71733 23.6054 4.05333 23.8721 4.496C24.1387 4.93333 24.2721 5.456 24.2721 6.064C24.2721 6.672 24.1387 7.19733 23.8721 7.64C23.6054 8.08267 23.2427 8.42133 22.7841 8.656C22.3254 8.88533 21.8081 9 21.2321 9H19.2801V3.144H21.2321ZM21.0961 8.008C21.7254 8.008 22.2081 7.84 22.5441 7.504C22.8801 7.168 23.0481 6.688 23.0481 6.064C23.0481 5.45067 22.8774 4.976 22.5361 4.64C22.2001 4.29867 21.7201 4.128 21.0961 4.128H20.4401V8.008H21.0961ZM26.6974 2.6L27.4414 1.576H28.6014L27.6094 2.6H26.6974ZM28.7614 6.528H26.3854V7.984H29.1294V9H25.2254V3.144H29.0414V4.152H26.3854V5.528H28.7614V6.528ZM35.0046 3.144H35.8846V9H34.7806V5.224L33.2926 7.44H32.6846L31.1886 5.208V9H30.0926V3.144H31.0126L33.0126 6.176L35.0046 3.144ZM38.276 9H37.116V3.144H38.276V9ZM43.0348 6.528H40.6588V7.984H43.4028V9H39.4988V3.144H43.3148V4.152H40.6588V5.528H43.0348V6.528ZM48.4743 3.144C49.0449 3.144 49.5596 3.25867 50.0182 3.488C50.4823 3.71733 50.8476 4.05333 51.1143 4.496C51.3809 4.93333 51.5143 5.456 51.5143 6.064C51.5143 6.672 51.3809 7.19733 51.1143 7.64C50.8476 8.08267 50.4849 8.42133 50.0263 8.656C49.5676 8.88533 49.0503 9 48.4743 9H46.5223V3.144H48.4743ZM48.3383 8.008C48.9676 8.008 49.4503 7.84 49.7863 7.504C50.1223 7.168 50.2903 6.688 50.2903 6.064C50.2903 5.45067 50.1196 4.976 49.7783 4.64C49.4423 4.29867 48.9623 4.128 48.3383 4.128H47.6823V8.008H48.3383ZM53.6276 9H52.4676V3.144H53.6276V9ZM56.8024 3.144C57.373 3.144 57.8877 3.25867 58.3464 3.488C58.8104 3.71733 59.1757 4.05333 59.4424 4.496C59.709 4.93333 59.8424 5.456 59.8424 6.064C59.8424 6.672 59.709 7.19733 59.4424 7.64C59.1757 8.08267 58.813 8.42133 58.3544 8.656C57.8957 8.88533 57.3784 9 56.8024 9H54.8504V3.144H56.8024ZM56.6664 8.008C57.2957 8.008 57.7784 7.84 58.1144 7.504C58.4504 7.168 58.6184 6.688 58.6184 6.064C58.6184 5.45067 58.4477 4.976 58.1064 4.64C57.7704 4.29867 57.2904 4.128 56.6664 4.128H56.0104V8.008H56.6664ZM64.3317 6.528H61.9557V7.984H64.6997V9H60.7957V3.144H64.6117V4.152H61.9557V5.528H64.3317V6.528ZM70.5269 9L69.1429 8.992L67.7189 6.888H67.6709H66.8229V9H65.6629V3.144H67.6869C68.1455 3.144 68.5482 3.22133 68.8949 3.376C69.2415 3.53067 69.5082 3.752 69.6949 4.04C69.8815 4.32267 69.9749 4.648 69.9749 5.016C69.9749 5.38933 69.8789 5.71733 69.6869 6C69.4949 6.28267 69.2255 6.49867 68.8789 6.648L70.5269 9ZM66.8229 4.128V5.904H67.5509C67.8922 5.904 68.1749 5.832 68.3989 5.688C68.6282 5.53867 68.7429 5.31467 68.7429 5.016C68.7429 4.712 68.6309 4.488 68.4069 4.344C68.1829 4.2 67.8975 4.128 67.5509 4.128H66.8229ZM70.7735 6.064C70.7735 5.45067 70.8962 4.91467 71.1415 4.456C71.3868 3.99733 71.7202 3.648 72.1415 3.408C72.5682 3.16267 73.0428 3.04 73.5655 3.04C74.0882 3.04 74.5602 3.16267 74.9815 3.408C75.4082 3.648 75.7442 3.99733 75.9895 4.456C76.2402 4.91467 76.3655 5.45067 76.3655 6.064C76.3655 6.68267 76.2402 7.22133 75.9895 7.68C75.7442 8.13867 75.4082 8.49067 74.9815 8.736C74.5602 8.976 74.0882 9.096 73.5655 9.096C73.0428 9.096 72.5682 8.976 72.1415 8.736C71.7202 8.49067 71.3868 8.13867 71.1415 7.68C70.8962 7.22133 70.7735 6.68267 70.7735 6.064ZM71.9975 6.064C71.9975 6.45333 72.0615 6.79733 72.1895 7.096C72.3228 7.39467 72.5068 7.62667 72.7415 7.792C72.9815 7.952 73.2562 8.032 73.5655 8.032C73.8748 8.032 74.1468 7.952 74.3815 7.792C74.6215 7.62667 74.8055 7.39467 74.9335 7.096C75.0668 6.79733 75.1335 6.45333 75.1335 6.064C75.1335 5.67467 75.0668 5.33333 74.9335 5.04C74.8055 4.74133 74.6215 4.512 74.3815 4.352C74.1468 4.18667 73.8748 4.104 73.5655 4.104C73.2562 4.104 72.9815 4.18667 72.7415 4.352C72.5068 4.512 72.3228 4.74133 72.1895 5.04C72.0615 5.33333 71.9975 5.67467 71.9975 6.064ZM76.5328 3.144H81.2528V4.176H79.4768V9H78.3088V4.176H76.5328V3.144Z" fill="white"/>
</svg>
