<svg width="84" height="21" viewBox="0 0 84 21" fill="none" xmlns="http://www.w3.org/2000/svg">
<g style="mix-blend-mode:luminosity">
<path d="M18.4929 3.27734V12.0821H16.4476L12.5647 7.38984V12.0821H10.1147V3.27734H12.171L16.0538 7.96953V3.27734H18.4929Z" fill="white"/>
<path d="M27.331 10.1571V12.0821H20.2544V3.27734H27.1669V5.20234H22.7263V6.68984H26.6419V8.54922H22.7263V10.1571H27.331Z" fill="white"/>
<path d="M32.733 3.27734C33.5342 3.27734 34.226 3.40859 34.8111 3.67109C35.4018 3.93359 35.8529 4.31367 36.1674 4.80859C36.4873 5.29805 36.6486 5.875 36.6486 6.53672C36.6486 7.20117 36.4873 7.77812 36.1674 8.26484C35.8529 8.74609 35.4018 9.12344 34.8111 9.39141C34.226 9.65391 33.5342 9.78516 32.733 9.78516H31.2018V12.0821H28.708V3.27734H32.733ZM32.5908 7.81641C33.0994 7.81641 33.4822 7.70703 33.7393 7.48828C34.0018 7.26406 34.133 6.94687 34.133 6.53672C34.133 6.1293 34.0018 5.81211 33.7393 5.58516C33.4822 5.35273 33.0994 5.23516 32.5908 5.23516H31.2018V7.81641H32.5908Z" fill="white"/>
<path d="M39.8607 5.25703H37.1592V3.27734H45.0451V5.25703H42.3545V12.0821H39.8607V5.25703Z" fill="white"/>
<path d="M50.0367 12.2571C48.7297 12.2571 47.7125 11.9043 46.9852 11.1961C46.2633 10.4825 45.9023 9.46797 45.9023 8.15547V3.27734H48.3852V8.07891C48.3852 9.49531 48.943 10.2008 50.0586 10.2008C51.166 10.2008 51.7211 9.49531 51.7211 8.07891V3.27734H54.1711V8.15547C54.1711 9.46797 53.8047 10.4825 53.0773 11.1961C52.3555 11.9043 51.341 12.2571 50.0367 12.2571Z" fill="white"/>
<path d="M64.2336 3.27734V12.0821H62.1883L58.3055 7.38984V12.0821H55.8555V3.27734H57.9117L61.7945 7.96953V3.27734H64.2336Z" fill="white"/>
<mask id="mask0_501_262" style="mask-type:luminance" maskUnits="userSpaceOnUse" x="64" y="2" width="11" height="11">
<path d="M64.7002 2.80005H74.9787V12.6001H64.7002V2.80005Z" fill="white"/>
</mask>
<g mask="url(#mask0_501_262)">
<path d="M71.9016 10.3758H68.1719L67.4828 12.0821H64.9453L68.8281 3.27734H71.2781L75.1828 12.0821H72.5906L71.9016 10.3758ZM71.1687 8.53828L70.0422 5.71641L68.9047 8.53828H71.1687Z" fill="white"/>
</g>
<path d="M42.9961 19.0582H41.9133L39.7148 16.1051V19.0582H38.5664V14.2567H39.6383L41.8586 17.2207V14.2567H42.9961V19.0582Z" fill="white"/>
<path d="M47.7086 15.2192H45.1711V16.1707H47.468V17.1332H45.1711V18.0957H47.7852V19.0582H43.957V14.2567H47.7086V15.2192Z" fill="white"/>
<path d="M52.2446 15.241H50.8009V19.0582H49.5759V15.241H48.1431V14.2457H52.2446V15.241Z" fill="white"/>
<path d="M58.1637 19.0582H56.9168L56.0199 15.7442L55.1121 19.0582H53.8543L52.2793 14.2567H53.5918L54.5215 17.7895L55.4402 14.2567H56.6434L57.573 17.7895L58.5027 14.2567H59.7496L58.1637 19.0582Z" fill="white"/>
<path d="M62.4608 14.213C63.2046 14.213 63.8226 14.4481 64.3202 14.913C64.8151 15.3806 65.064 15.9603 65.064 16.6521C65.064 17.3521 64.8151 17.9399 64.3202 18.413C63.8226 18.8806 63.2046 19.113 62.4608 19.113C61.7171 19.113 61.0964 18.8806 60.6015 18.413C60.112 17.9399 59.8687 17.3521 59.8687 16.6521C59.8687 15.9521 60.112 15.3724 60.6015 14.913C61.0964 14.4481 61.7171 14.213 62.4608 14.213ZM62.4718 15.2411C62.0999 15.2411 61.7772 15.3778 61.5093 15.6458C61.2468 15.9165 61.1155 16.2556 61.1155 16.663C61.1155 17.0649 61.2495 17.404 61.5202 17.6802C61.7882 17.9591 62.1054 18.0958 62.4718 18.0958C62.8437 18.0958 63.1554 17.9591 63.4124 17.6802C63.6749 17.404 63.8062 17.0649 63.8062 16.663C63.8062 16.2556 63.6749 15.9165 63.4124 15.6458C63.1554 15.3778 62.8437 15.2411 62.4718 15.2411Z" fill="white"/>
<path d="M68.595 19.0582L67.8841 17.702H66.9216V19.0582H65.7075V14.2567H67.8513C68.4856 14.2567 68.9778 14.4043 69.3278 14.6942C69.6778 14.9867 69.8528 15.3996 69.8528 15.9301C69.8528 16.6738 69.5603 17.1879 68.9778 17.4723L69.9841 19.0582H68.595ZM66.9216 16.7504H67.8513C68.1192 16.7504 68.3271 16.6848 68.4747 16.5535C68.6196 16.4168 68.6935 16.2227 68.6935 15.9738C68.6935 15.7277 68.6196 15.5418 68.4747 15.416C68.3271 15.2848 68.1192 15.2192 67.8513 15.2192H66.9216V16.7504Z" fill="white"/>
<mask id="mask1_501_262" style="mask-type:luminance" maskUnits="userSpaceOnUse" x="70" y="14" width="5" height="6">
<path d="M70.2998 14H74.9783V19.6H70.2998V14Z" fill="white"/>
</mask>
<g mask="url(#mask1_501_262)">
<path d="M73.802 19.0582L72.5332 17.177L71.8879 17.877V19.0582H70.6738V14.2567H71.8879V16.3348L73.7363 14.2567H75.1473L73.3645 16.2473L75.2566 19.0582H73.802Z" fill="white"/>
</g>
<path d="M34.7561 14.2052C33.3451 14.2052 32.2021 15.3481 32.2021 16.7591C32.2021 18.1673 33.3451 19.3103 34.7561 19.3103C36.167 19.3103 37.3101 18.1673 37.3101 16.7591C37.3101 15.3481 36.167 14.2052 34.7561 14.2052Z" fill="#AEAEAE"/>
</g>
</svg>
