<svg width="459" height="500" viewBox="0 0 459 500" fill="none" xmlns="http://www.w3.org/2000/svg">
<g style="mix-blend-mode:luminosity" opacity="0.1">
<path d="M232.729 256.513C250.17 247.247 262.744 236.789 260.813 233.155C258.882 229.522 243.179 234.088 225.737 243.355C208.296 252.622 195.722 263.079 197.653 266.713C199.583 270.347 215.287 265.78 232.729 256.513Z" stroke="url(#paint0_linear_309_454)" stroke-width="2" stroke-miterlimit="10"/>
<path d="M232.998 256.676C251.632 246.3 265.061 234.878 262.992 231.163C260.924 227.448 244.141 232.848 225.508 243.224C206.874 253.6 193.445 265.022 195.514 268.737C197.582 272.452 214.365 267.052 232.998 256.676Z" stroke="url(#paint1_linear_309_454)" stroke-width="2" stroke-miterlimit="10"/>
<path d="M233.346 256.788C253.261 245.195 267.615 232.723 265.407 228.93C263.199 225.136 245.265 231.459 225.35 243.051C205.435 254.643 191.081 267.116 193.289 270.909C195.497 274.702 213.431 268.38 233.346 256.788Z" stroke="url(#paint2_linear_309_454)" stroke-width="2" stroke-miterlimit="10"/>
<path d="M233.406 257.011C254.626 244.13 269.924 230.551 267.576 226.682C265.227 222.813 246.121 230.119 224.901 243.001C203.681 255.882 188.382 269.461 190.731 273.33C193.08 277.199 212.186 269.893 233.406 257.011Z" stroke="url(#paint3_linear_309_454)" stroke-width="2" stroke-miterlimit="10"/>
<path d="M233.801 257.128C256.353 242.878 272.616 228.13 270.125 224.187C267.634 220.245 247.332 228.602 224.78 242.852C202.228 257.103 185.966 271.851 188.457 275.793C190.948 279.735 211.249 271.379 233.801 257.128Z" stroke="url(#paint4_linear_309_454)" stroke-width="2" stroke-miterlimit="10"/>
<path d="M234.008 257.189C257.969 241.455 275.257 225.447 272.622 221.434C269.987 217.422 248.427 226.924 224.466 242.658C200.505 258.392 183.217 274.4 185.852 278.413C188.487 282.426 210.047 272.923 234.008 257.189Z" stroke="url(#paint5_linear_309_454)" stroke-width="2" stroke-miterlimit="10"/>
<path d="M234.223 257.499C259.612 240.202 277.909 222.827 275.09 218.69C272.272 214.553 249.405 225.221 224.016 242.518C198.628 259.814 180.331 277.19 183.149 281.327C185.968 285.464 208.834 274.796 234.223 257.499Z" stroke="url(#paint6_linear_309_454)" stroke-width="2" stroke-miterlimit="10"/>
<path d="M234.564 257.685C261.453 238.702 280.815 219.862 277.809 215.604C274.804 211.347 250.569 223.284 223.679 242.267C196.79 261.25 177.428 280.09 180.433 284.348C183.439 288.605 207.674 276.668 234.564 257.685Z" stroke="url(#paint7_linear_309_454)" stroke-width="2" stroke-miterlimit="10"/>
<path d="M234.995 257.833C263.343 237.118 283.733 216.779 280.537 212.404C277.341 208.03 251.768 221.278 223.42 241.993C195.071 262.709 174.681 283.048 177.877 287.422C181.074 291.796 206.646 278.549 234.995 257.833Z" stroke="url(#paint8_linear_309_454)" stroke-width="2" stroke-miterlimit="10"/>
<path d="M235.378 258.206C265.254 235.636 286.725 213.701 283.335 209.215C279.945 204.728 252.979 219.387 223.103 241.958C193.228 264.528 171.757 286.462 175.146 290.949C178.536 295.436 205.503 280.776 235.378 258.206Z" stroke="url(#paint9_linear_309_454)" stroke-width="2" stroke-miterlimit="10"/>
<path d="M235.925 258.335C267.387 233.773 289.95 210.094 286.321 205.445C282.691 200.795 254.244 216.938 222.782 241.499C191.32 266.061 168.757 289.741 172.386 294.39C176.015 299.039 204.463 282.896 235.925 258.335Z" stroke="url(#paint10_linear_309_454)" stroke-width="2" stroke-miterlimit="10"/>
<path d="M236.21 258.732C269.207 232.138 292.817 206.685 288.944 201.879C285.071 197.074 255.182 214.736 222.185 241.33C189.188 267.924 165.578 293.377 169.451 298.183C173.324 302.988 203.213 285.326 236.21 258.732Z" stroke="url(#paint11_linear_309_454)" stroke-width="2" stroke-miterlimit="10"/>
<path d="M236.559 258.939C271.144 230.175 295.84 202.839 291.718 197.884C287.596 192.928 256.218 212.228 221.633 240.992C187.048 269.756 162.352 297.092 166.474 302.048C170.595 307.003 201.974 287.703 236.559 258.939Z" stroke="url(#paint12_linear_309_454)" stroke-width="2" stroke-miterlimit="10"/>
<path d="M237.144 259.139C273.318 228.107 299.096 198.816 294.721 193.715C290.345 188.614 257.473 209.636 221.298 240.667C185.124 271.699 159.346 300.991 163.722 306.091C168.097 311.192 200.97 290.171 237.144 259.139Z" stroke="url(#paint13_linear_309_454)" stroke-width="2" stroke-miterlimit="10"/>
<path d="M237.754 259.565C275.563 226.127 302.419 194.731 297.74 189.44C293.06 184.149 258.617 206.966 220.808 240.404C183 273.842 156.143 305.238 160.823 310.529C165.502 315.82 199.945 293.003 237.754 259.565Z" stroke="url(#paint14_linear_309_454)" stroke-width="2" stroke-miterlimit="10"/>
<path d="M238.332 259.992C277.709 224.094 305.548 190.516 300.512 184.992C295.476 179.468 259.473 204.091 220.096 239.988C180.719 275.885 152.88 309.464 157.916 314.988C162.952 320.512 198.955 295.889 238.332 259.992Z" stroke="url(#paint15_linear_309_454)" stroke-width="2" stroke-miterlimit="10"/>
<path d="M239.094 260.327C280.027 221.866 308.831 186.028 303.43 180.281C298.03 174.533 260.47 201.053 219.537 239.514C178.605 277.975 149.801 313.813 155.201 319.561C160.602 325.308 198.162 298.789 239.094 260.327Z" stroke="url(#paint16_linear_309_454)" stroke-width="2" stroke-miterlimit="10"/>
<path d="M239.762 260.704C282.229 219.579 311.975 181.409 306.203 175.448C300.43 169.487 261.324 197.992 218.858 239.117C176.391 280.242 146.645 318.413 152.417 324.374C158.19 330.335 197.296 301.829 239.762 260.704Z" stroke="url(#paint17_linear_309_454)" stroke-width="2" stroke-miterlimit="10"/>
<path d="M240.44 261.277C284.464 217.34 315.126 176.685 308.926 170.472C302.725 164.259 262.01 194.841 217.985 238.778C173.961 282.715 143.299 323.37 149.5 329.583C155.7 335.796 196.416 305.214 240.44 261.277Z" stroke="url(#paint18_linear_309_454)" stroke-width="2" stroke-miterlimit="10"/>
<path d="M241.286 261.664C286.742 214.898 318.209 171.755 311.57 165.302C304.932 158.85 262.701 191.53 217.245 238.297C171.789 285.063 140.322 328.206 146.961 334.659C153.6 341.111 195.831 308.431 241.286 261.664Z" stroke="url(#paint19_linear_309_454)" stroke-width="2" stroke-miterlimit="10"/>
<path d="M242.22 262.167C289.115 212.414 321.306 166.59 314.12 159.817C306.934 153.044 263.092 187.886 216.197 237.639C169.301 287.393 137.111 333.216 144.297 339.99C151.483 346.763 195.324 311.921 242.22 262.167Z" stroke="url(#paint20_linear_309_454)" stroke-width="2" stroke-miterlimit="10"/>
<path d="M243.178 262.704C291.429 209.905 324.306 161.402 316.611 154.37C308.917 147.338 263.564 184.44 215.313 237.24C167.062 290.04 134.185 338.543 141.88 345.575C149.574 352.607 194.927 315.504 243.178 262.704Z" stroke="url(#paint21_linear_309_454)" stroke-width="2" stroke-miterlimit="10"/>
<path d="M244.231 263.188C293.736 207.275 327.125 155.979 318.808 148.615C310.49 141.25 263.616 180.606 214.111 236.519C164.605 292.432 131.216 343.728 139.534 351.092C147.852 358.457 194.726 319.101 244.231 263.188Z" stroke="url(#paint22_linear_309_454)" stroke-width="2" stroke-miterlimit="10"/>
<path d="M245.576 263.996C296.291 204.86 330.103 150.66 321.097 142.937C312.091 135.213 263.678 176.892 212.964 236.027C162.249 295.163 128.437 349.363 137.443 357.087C146.449 364.81 194.862 323.132 245.576 263.996Z" stroke="url(#paint23_linear_309_454)" stroke-width="2" stroke-miterlimit="10"/>
<path d="M246.746 264.594C298.51 202.221 332.601 145.125 322.891 137.067C313.181 129.009 263.348 173.041 211.585 235.414C159.822 297.788 125.731 354.884 135.44 362.942C145.15 371 194.983 326.968 246.746 264.594Z" stroke="url(#paint24_linear_309_454)" stroke-width="2" stroke-miterlimit="10"/>
<path d="M248.279 265.138C301.021 199.4 335.235 139.255 324.698 130.8C314.16 122.346 262.862 168.784 210.119 234.523C157.376 300.262 123.162 360.407 133.7 368.861C144.237 377.315 195.536 330.877 248.279 265.138Z" stroke="url(#paint25_linear_309_454)" stroke-width="2" stroke-miterlimit="10"/>
<path d="M249.919 265.963C303.482 196.854 337.632 133.645 326.195 124.781C314.758 115.917 262.066 164.755 208.503 233.863C154.941 302.972 120.791 366.181 132.228 375.045C143.664 383.909 196.357 335.071 249.919 265.963Z" stroke="url(#paint26_linear_309_454)" stroke-width="2" stroke-miterlimit="10"/>
<path d="M251.773 266.911C306.027 194.367 339.903 128 327.437 118.677C314.971 109.354 260.884 160.605 206.63 233.149C152.376 305.693 118.5 372.059 130.966 381.382C143.432 390.705 197.519 339.454 251.773 266.911Z" stroke="url(#paint27_linear_309_454)" stroke-width="2" stroke-miterlimit="10"/>
<path d="M253.656 267.599C308.378 191.656 341.78 122.194 328.26 112.452C314.741 102.711 259.42 156.377 204.697 232.32C149.975 308.264 116.573 377.725 130.093 387.467C143.612 397.209 198.933 343.542 253.656 267.599Z" stroke="url(#paint28_linear_309_454)" stroke-width="2" stroke-miterlimit="10"/>
<path d="M255.846 268.478C310.893 189.073 343.547 116.404 328.782 106.168C314.017 95.9324 257.423 152.006 202.376 231.411C147.329 310.817 114.675 383.486 129.44 393.722C144.205 403.957 200.799 347.884 255.846 268.478Z" stroke="url(#paint29_linear_309_454)" stroke-width="2" stroke-miterlimit="10"/>
<path d="M258.458 269.346C313.641 186.462 345.28 110.552 329.126 99.7965C312.971 89.041 255.141 147.513 199.957 230.398C144.774 313.282 113.135 389.192 129.289 399.948C145.444 410.703 203.274 352.231 258.458 269.346Z" stroke="url(#paint30_linear_309_454)" stroke-width="2" stroke-miterlimit="10"/>
<path d="M261.207 270.244C316.327 183.876 346.717 104.739 329.085 93.4864C311.453 82.2337 252.476 143.127 197.356 229.494C142.236 315.862 111.846 395 129.478 406.252C147.11 417.505 206.087 356.612 261.207 270.244Z" stroke="url(#paint31_linear_309_454)" stroke-width="2" stroke-miterlimit="10"/>
<path d="M264.348 271.297C319.119 181.56 347.813 99.2268 328.437 87.4008C309.062 75.5747 248.954 138.734 194.182 228.471C139.411 318.207 110.717 400.541 130.093 412.367C149.468 424.193 209.576 361.033 264.348 271.297Z" stroke="url(#paint32_linear_309_454)" stroke-width="2" stroke-miterlimit="10"/>
<path d="M267.697 272.334C321.908 179.231 348.656 93.7409 327.44 81.3872C306.223 69.0335 245.077 134.494 190.866 227.597C136.654 320.7 109.906 406.19 131.123 418.544C152.339 430.897 213.485 365.437 267.697 272.334Z" stroke="url(#paint33_linear_309_454)" stroke-width="2" stroke-miterlimit="10"/>
<path d="M271.36 273.334C324.742 176.929 349.099 88.302 325.763 75.3801C302.426 62.4581 240.234 130.134 186.852 226.539C133.47 322.944 109.113 411.571 132.45 424.493C155.786 437.415 217.978 369.739 271.36 273.334Z" stroke="url(#paint34_linear_309_454)" stroke-width="2" stroke-miterlimit="10"/>
<path d="M275.85 274.52C328.156 174.882 349.688 83.1547 323.944 69.64C298.2 56.1253 234.928 125.941 182.622 225.579C130.316 325.216 108.784 416.944 134.528 430.459C160.272 443.974 223.544 374.157 275.85 274.52Z" stroke="url(#paint35_linear_309_454)" stroke-width="2" stroke-miterlimit="10"/>
<path d="M280.686 275.466C331.606 172.731 349.872 78.042 321.485 63.9719C293.098 49.9018 228.806 121.779 177.886 224.514C126.966 327.249 108.699 421.938 137.086 436.008C165.474 450.078 229.765 378.201 280.686 275.466Z" stroke="url(#paint36_linear_309_454)" stroke-width="2" stroke-miterlimit="10"/>
<path d="M286.142 276.415C335.403 170.674 349.887 73.0974 318.494 58.4727C287.101 43.8481 221.718 117.713 172.458 223.455C123.197 329.196 108.713 426.773 140.106 441.397C171.499 456.022 236.882 382.157 286.142 276.415Z" stroke="url(#paint37_linear_309_454)" stroke-width="2" stroke-miterlimit="10"/>
<path d="M291.988 277.298C339.277 168.721 349.479 68.4476 314.775 53.3325C280.07 38.2173 213.601 113.984 166.311 222.562C119.021 331.139 108.819 431.412 143.524 446.528C178.229 461.643 244.698 385.876 291.988 277.298Z" stroke="url(#paint38_linear_309_454)" stroke-width="2" stroke-miterlimit="10"/>
<path d="M298.913 278.267C343.94 167.031 349.216 64.216 310.696 48.6237C272.177 33.0314 204.449 110.566 159.422 221.802C114.394 333.038 109.119 435.852 147.638 451.445C186.158 467.037 253.886 389.502 298.913 278.267Z" stroke="url(#paint39_linear_309_454)" stroke-width="2" stroke-miterlimit="10"/>
<path d="M306.499 278.829C348.958 165.12 348.745 60.0092 306.024 44.0571C263.303 28.1051 194.251 107.353 151.792 221.062C109.334 334.77 109.546 439.881 152.268 455.833C194.989 471.785 264.041 392.538 306.499 278.829Z" stroke="url(#paint40_linear_309_454)" stroke-width="2" stroke-miterlimit="10"/>
<path d="M315.191 279.386C354.798 163.421 348.398 56.2608 300.896 40.0369C253.393 23.8129 182.777 104.669 143.171 220.634C103.564 336.599 109.964 443.76 157.466 459.984C204.969 476.208 275.585 395.352 315.191 279.386Z" stroke="url(#paint41_linear_309_454)" stroke-width="2" stroke-miterlimit="10"/>
<path d="M324.942 279.552C361.414 161.554 348.118 52.6503 295.245 36.3081C242.372 19.9659 169.944 102.374 133.473 220.371C97.0014 338.369 110.298 447.273 163.17 463.615C216.043 479.957 288.471 397.549 324.942 279.552Z" stroke="url(#paint42_linear_309_454)" stroke-width="2" stroke-miterlimit="10"/>
<path d="M335.727 279.393C368.811 159.552 347.886 49.2216 288.991 32.9624C230.095 16.7033 155.531 100.673 122.447 220.513C89.3628 340.354 110.287 450.685 169.183 466.944C228.079 483.203 302.643 399.233 335.727 279.393Z" stroke="url(#paint43_linear_309_454)" stroke-width="2" stroke-miterlimit="10"/>
<path d="M348.074 278.802C377.536 157.379 348.206 46.0349 282.563 30.1071C216.92 14.1794 139.822 99.6998 110.36 221.122C80.8976 342.545 110.228 453.89 175.871 469.817C241.513 485.745 318.611 400.224 348.074 278.802Z" stroke="url(#paint44_linear_309_454)" stroke-width="2" stroke-miterlimit="10"/>
<path d="M361.674 277.602C387.284 154.889 348.729 43.0318 275.558 27.7607C202.387 12.4897 122.309 99.5881 96.6982 222.301C71.0876 345.013 109.643 456.871 182.814 472.142C255.985 487.413 336.063 400.314 361.674 277.602Z" stroke="url(#paint45_linear_309_454)" stroke-width="2" stroke-miterlimit="10"/>
<path d="M377.049 275.791C398.644 151.963 349.942 40.0344 268.268 25.7906C186.595 11.5469 102.879 100.382 81.2835 224.209C59.6881 348.037 108.391 459.966 190.064 474.21C271.738 488.453 355.454 399.618 377.049 275.791Z" stroke="url(#paint46_linear_309_454)" stroke-width="2" stroke-miterlimit="10"/>
<path d="M394.107 272.921C411.532 148.223 351.825 36.8183 260.747 24.0909C169.669 11.3635 81.7093 102.133 64.2839 226.831C46.8585 351.528 106.566 462.933 197.644 475.66C288.722 488.388 376.681 397.618 394.107 272.921Z" stroke="url(#paint47_linear_309_454)" stroke-width="2" stroke-miterlimit="10"/>
<path d="M412.957 269.261C426.096 143.979 354.426 33.7842 252.878 23.1341C151.329 12.484 58.3565 105.411 45.2173 230.693C32.0782 355.975 103.748 466.17 205.297 476.82C306.845 487.47 399.818 394.542 412.957 269.261Z" stroke="url(#paint48_linear_309_454)" stroke-width="2" stroke-miterlimit="10"/>
<path d="M434.121 264.206C442.913 138.465 358.312 30.1183 245.159 22.2061C132.006 14.294 33.1498 109.813 24.3574 235.554C15.5651 361.294 100.166 469.642 213.319 477.554C326.472 485.466 425.328 389.947 434.121 264.206Z" stroke="url(#paint49_linear_309_454)" stroke-width="2" stroke-miterlimit="10"/>
<path d="M229.222 478.181C355.265 478.181 457.443 376.003 457.443 249.959C457.443 123.916 355.265 21.7378 229.222 21.7378C103.178 21.7378 1 123.916 1 249.959C1 376.003 103.178 478.181 229.222 478.181Z" stroke="url(#paint50_linear_309_454)" stroke-width="2" stroke-miterlimit="10"/>
</g>
<defs>
<linearGradient id="paint0_linear_309_454" x1="225.737" y1="243.355" x2="232.728" y2="256.513" gradientUnits="userSpaceOnUse">
<stop stop-color="#03BFC0"/>
<stop offset="1" stop-color="#8C5F80"/>
</linearGradient>
<linearGradient id="paint1_linear_309_454" x1="225.508" y1="243.224" x2="232.998" y2="256.676" gradientUnits="userSpaceOnUse">
<stop stop-color="#03BFC0"/>
<stop offset="1" stop-color="#8C5F80"/>
</linearGradient>
<linearGradient id="paint2_linear_309_454" x1="225.35" y1="243.051" x2="233.346" y2="256.788" gradientUnits="userSpaceOnUse">
<stop stop-color="#03BFC0"/>
<stop offset="1" stop-color="#8C5F80"/>
</linearGradient>
<linearGradient id="paint3_linear_309_454" x1="224.901" y1="243.001" x2="233.406" y2="257.011" gradientUnits="userSpaceOnUse">
<stop stop-color="#03BFC0"/>
<stop offset="1" stop-color="#8C5F80"/>
</linearGradient>
<linearGradient id="paint4_linear_309_454" x1="224.78" y1="242.852" x2="233.801" y2="257.128" gradientUnits="userSpaceOnUse">
<stop stop-color="#03BFC0"/>
<stop offset="1" stop-color="#8C5F80"/>
</linearGradient>
<linearGradient id="paint5_linear_309_454" x1="224.466" y1="242.658" x2="234.008" y2="257.189" gradientUnits="userSpaceOnUse">
<stop stop-color="#03BFC0"/>
<stop offset="1" stop-color="#8C5F80"/>
</linearGradient>
<linearGradient id="paint6_linear_309_454" x1="224.016" y1="242.518" x2="234.223" y2="257.499" gradientUnits="userSpaceOnUse">
<stop stop-color="#03BFC0"/>
<stop offset="1" stop-color="#8C5F80"/>
</linearGradient>
<linearGradient id="paint7_linear_309_454" x1="223.679" y1="242.267" x2="234.564" y2="257.685" gradientUnits="userSpaceOnUse">
<stop stop-color="#03BFC0"/>
<stop offset="1" stop-color="#8C5F80"/>
</linearGradient>
<linearGradient id="paint8_linear_309_454" x1="223.42" y1="241.993" x2="234.995" y2="257.833" gradientUnits="userSpaceOnUse">
<stop stop-color="#03BFC0"/>
<stop offset="1" stop-color="#8C5F80"/>
</linearGradient>
<linearGradient id="paint9_linear_309_454" x1="223.103" y1="241.958" x2="235.378" y2="258.206" gradientUnits="userSpaceOnUse">
<stop stop-color="#03BFC0"/>
<stop offset="1" stop-color="#8C5F80"/>
</linearGradient>
<linearGradient id="paint10_linear_309_454" x1="222.782" y1="241.499" x2="235.925" y2="258.335" gradientUnits="userSpaceOnUse">
<stop stop-color="#03BFC0"/>
<stop offset="1" stop-color="#8C5F80"/>
</linearGradient>
<linearGradient id="paint11_linear_309_454" x1="222.185" y1="241.33" x2="236.21" y2="258.732" gradientUnits="userSpaceOnUse">
<stop stop-color="#03BFC0"/>
<stop offset="1" stop-color="#8C5F80"/>
</linearGradient>
<linearGradient id="paint12_linear_309_454" x1="221.633" y1="240.992" x2="236.559" y2="258.939" gradientUnits="userSpaceOnUse">
<stop stop-color="#03BFC0"/>
<stop offset="1" stop-color="#8C5F80"/>
</linearGradient>
<linearGradient id="paint13_linear_309_454" x1="221.298" y1="240.667" x2="237.144" y2="259.139" gradientUnits="userSpaceOnUse">
<stop stop-color="#03BFC0"/>
<stop offset="1" stop-color="#8C5F80"/>
</linearGradient>
<linearGradient id="paint14_linear_309_454" x1="220.808" y1="240.404" x2="237.754" y2="259.565" gradientUnits="userSpaceOnUse">
<stop stop-color="#03BFC0"/>
<stop offset="1" stop-color="#8C5F80"/>
</linearGradient>
<linearGradient id="paint15_linear_309_454" x1="220.096" y1="239.988" x2="238.332" y2="259.992" gradientUnits="userSpaceOnUse">
<stop stop-color="#03BFC0"/>
<stop offset="1" stop-color="#8C5F80"/>
</linearGradient>
<linearGradient id="paint16_linear_309_454" x1="219.537" y1="239.514" x2="239.094" y2="260.327" gradientUnits="userSpaceOnUse">
<stop stop-color="#03BFC0"/>
<stop offset="1" stop-color="#8C5F80"/>
</linearGradient>
<linearGradient id="paint17_linear_309_454" x1="218.857" y1="239.117" x2="239.762" y2="260.704" gradientUnits="userSpaceOnUse">
<stop stop-color="#03BFC0"/>
<stop offset="1" stop-color="#8C5F80"/>
</linearGradient>
<linearGradient id="paint18_linear_309_454" x1="217.985" y1="238.778" x2="240.44" y2="261.277" gradientUnits="userSpaceOnUse">
<stop stop-color="#03BFC0"/>
<stop offset="1" stop-color="#8C5F80"/>
</linearGradient>
<linearGradient id="paint19_linear_309_454" x1="217.245" y1="238.297" x2="241.286" y2="261.664" gradientUnits="userSpaceOnUse">
<stop stop-color="#03BFC0"/>
<stop offset="1" stop-color="#8C5F80"/>
</linearGradient>
<linearGradient id="paint20_linear_309_454" x1="216.197" y1="237.639" x2="242.22" y2="262.167" gradientUnits="userSpaceOnUse">
<stop stop-color="#03BFC0"/>
<stop offset="1" stop-color="#8C5F80"/>
</linearGradient>
<linearGradient id="paint21_linear_309_454" x1="215.313" y1="237.24" x2="243.178" y2="262.705" gradientUnits="userSpaceOnUse">
<stop stop-color="#03BFC0"/>
<stop offset="1" stop-color="#8C5F80"/>
</linearGradient>
<linearGradient id="paint22_linear_309_454" x1="214.111" y1="236.519" x2="244.231" y2="263.188" gradientUnits="userSpaceOnUse">
<stop stop-color="#03BFC0"/>
<stop offset="1" stop-color="#8C5F80"/>
</linearGradient>
<linearGradient id="paint23_linear_309_454" x1="212.964" y1="236.027" x2="245.576" y2="263.996" gradientUnits="userSpaceOnUse">
<stop stop-color="#03BFC0"/>
<stop offset="1" stop-color="#8C5F80"/>
</linearGradient>
<linearGradient id="paint24_linear_309_454" x1="211.585" y1="235.414" x2="246.746" y2="264.594" gradientUnits="userSpaceOnUse">
<stop stop-color="#03BFC0"/>
<stop offset="1" stop-color="#8C5F80"/>
</linearGradient>
<linearGradient id="paint25_linear_309_454" x1="210.119" y1="234.523" x2="248.279" y2="265.138" gradientUnits="userSpaceOnUse">
<stop stop-color="#03BFC0"/>
<stop offset="1" stop-color="#8C5F80"/>
</linearGradient>
<linearGradient id="paint26_linear_309_454" x1="208.503" y1="233.863" x2="249.919" y2="265.963" gradientUnits="userSpaceOnUse">
<stop stop-color="#03BFC0"/>
<stop offset="1" stop-color="#8C5F80"/>
</linearGradient>
<linearGradient id="paint27_linear_309_454" x1="206.63" y1="233.149" x2="251.773" y2="266.911" gradientUnits="userSpaceOnUse">
<stop stop-color="#03BFC0"/>
<stop offset="1" stop-color="#8C5F80"/>
</linearGradient>
<linearGradient id="paint28_linear_309_454" x1="204.697" y1="232.32" x2="253.656" y2="267.599" gradientUnits="userSpaceOnUse">
<stop stop-color="#03BFC0"/>
<stop offset="1" stop-color="#8C5F80"/>
</linearGradient>
<linearGradient id="paint29_linear_309_454" x1="202.376" y1="231.411" x2="255.846" y2="268.478" gradientUnits="userSpaceOnUse">
<stop stop-color="#03BFC0"/>
<stop offset="1" stop-color="#8C5F80"/>
</linearGradient>
<linearGradient id="paint30_linear_309_454" x1="199.957" y1="230.398" x2="258.458" y2="269.346" gradientUnits="userSpaceOnUse">
<stop stop-color="#03BFC0"/>
<stop offset="1" stop-color="#8C5F80"/>
</linearGradient>
<linearGradient id="paint31_linear_309_454" x1="197.356" y1="229.494" x2="261.207" y2="270.244" gradientUnits="userSpaceOnUse">
<stop stop-color="#03BFC0"/>
<stop offset="1" stop-color="#8C5F80"/>
</linearGradient>
<linearGradient id="paint32_linear_309_454" x1="194.182" y1="228.471" x2="264.348" y2="271.297" gradientUnits="userSpaceOnUse">
<stop stop-color="#03BFC0"/>
<stop offset="1" stop-color="#8C5F80"/>
</linearGradient>
<linearGradient id="paint33_linear_309_454" x1="190.866" y1="227.597" x2="267.697" y2="272.334" gradientUnits="userSpaceOnUse">
<stop stop-color="#03BFC0"/>
<stop offset="1" stop-color="#8C5F80"/>
</linearGradient>
<linearGradient id="paint34_linear_309_454" x1="186.852" y1="226.539" x2="271.36" y2="273.334" gradientUnits="userSpaceOnUse">
<stop stop-color="#03BFC0"/>
<stop offset="1" stop-color="#8C5F80"/>
</linearGradient>
<linearGradient id="paint35_linear_309_454" x1="182.622" y1="225.579" x2="275.85" y2="274.52" gradientUnits="userSpaceOnUse">
<stop stop-color="#03BFC0"/>
<stop offset="1" stop-color="#8C5F80"/>
</linearGradient>
<linearGradient id="paint36_linear_309_454" x1="177.886" y1="224.514" x2="280.686" y2="275.466" gradientUnits="userSpaceOnUse">
<stop stop-color="#03BFC0"/>
<stop offset="1" stop-color="#8C5F80"/>
</linearGradient>
<linearGradient id="paint37_linear_309_454" x1="172.458" y1="223.455" x2="286.142" y2="276.415" gradientUnits="userSpaceOnUse">
<stop stop-color="#03BFC0"/>
<stop offset="1" stop-color="#8C5F80"/>
</linearGradient>
<linearGradient id="paint38_linear_309_454" x1="166.311" y1="222.562" x2="291.988" y2="277.298" gradientUnits="userSpaceOnUse">
<stop stop-color="#03BFC0"/>
<stop offset="1" stop-color="#8C5F80"/>
</linearGradient>
<linearGradient id="paint39_linear_309_454" x1="159.422" y1="221.802" x2="298.913" y2="278.267" gradientUnits="userSpaceOnUse">
<stop stop-color="#03BFC0"/>
<stop offset="1" stop-color="#8C5F80"/>
</linearGradient>
<linearGradient id="paint40_linear_309_454" x1="151.792" y1="221.062" x2="306.499" y2="278.829" gradientUnits="userSpaceOnUse">
<stop stop-color="#03BFC0"/>
<stop offset="1" stop-color="#8C5F80"/>
</linearGradient>
<linearGradient id="paint41_linear_309_454" x1="143.171" y1="220.634" x2="315.191" y2="279.387" gradientUnits="userSpaceOnUse">
<stop stop-color="#03BFC0"/>
<stop offset="1" stop-color="#8C5F80"/>
</linearGradient>
<linearGradient id="paint42_linear_309_454" x1="133.473" y1="220.371" x2="324.942" y2="279.552" gradientUnits="userSpaceOnUse">
<stop stop-color="#03BFC0"/>
<stop offset="1" stop-color="#8C5F80"/>
</linearGradient>
<linearGradient id="paint43_linear_309_454" x1="122.447" y1="220.513" x2="335.727" y2="279.393" gradientUnits="userSpaceOnUse">
<stop stop-color="#03BFC0"/>
<stop offset="1" stop-color="#8C5F80"/>
</linearGradient>
<linearGradient id="paint44_linear_309_454" x1="110.36" y1="221.122" x2="348.074" y2="278.802" gradientUnits="userSpaceOnUse">
<stop stop-color="#03BFC0"/>
<stop offset="1" stop-color="#8C5F80"/>
</linearGradient>
<linearGradient id="paint45_linear_309_454" x1="96.6982" y1="222.301" x2="361.674" y2="277.602" gradientUnits="userSpaceOnUse">
<stop stop-color="#03BFC0"/>
<stop offset="1" stop-color="#8C5F80"/>
</linearGradient>
<linearGradient id="paint46_linear_309_454" x1="81.2834" y1="224.21" x2="377.049" y2="275.791" gradientUnits="userSpaceOnUse">
<stop stop-color="#03BFC0"/>
<stop offset="1" stop-color="#8C5F80"/>
</linearGradient>
<linearGradient id="paint47_linear_309_454" x1="64.2839" y1="226.831" x2="394.107" y2="272.921" gradientUnits="userSpaceOnUse">
<stop stop-color="#03BFC0"/>
<stop offset="1" stop-color="#8C5F80"/>
</linearGradient>
<linearGradient id="paint48_linear_309_454" x1="45.2173" y1="230.693" x2="412.957" y2="269.261" gradientUnits="userSpaceOnUse">
<stop stop-color="#03BFC0"/>
<stop offset="1" stop-color="#8C5F80"/>
</linearGradient>
<linearGradient id="paint49_linear_309_454" x1="24.3574" y1="235.554" x2="434.121" y2="264.206" gradientUnits="userSpaceOnUse">
<stop stop-color="#03BFC0"/>
<stop offset="1" stop-color="#8C5F80"/>
</linearGradient>
<linearGradient id="paint50_linear_309_454" x1="229.222" y1="21.7378" x2="229.222" y2="478.181" gradientUnits="userSpaceOnUse">
<stop stop-color="#03BFC0"/>
<stop offset="1" stop-color="#8C5F80"/>
</linearGradient>
</defs>
</svg>
