<svg width="430" height="832" viewBox="0 0 430 832" fill="none" xmlns="http://www.w3.org/2000/svg">
<g opacity="0.5">
<mask id="mask0_400_566" style="mask-type:alpha" maskUnits="userSpaceOnUse" x="0" y="0" width="430" height="832">
<rect width="430" height="832" fill="url(#paint0_linear_400_566)"/>
</mask>
<g mask="url(#mask0_400_566)">
<g style="mix-blend-mode:luminosity">
<path d="M233.535 586.512C251.112 577.173 263.784 566.634 261.838 562.972C259.893 559.31 244.066 563.912 226.489 573.251C208.912 582.59 196.24 593.129 198.186 596.791C200.132 600.453 215.958 595.851 233.535 586.512Z" stroke="url(#paint1_linear_400_566)" stroke-miterlimit="10"/>
<path d="M233.806 586.676C252.585 576.22 266.118 564.708 264.033 560.965C261.949 557.221 245.036 562.663 226.257 573.119C207.478 583.576 193.945 595.087 196.029 598.831C198.114 602.575 215.027 597.133 233.806 586.676Z" stroke="url(#paint2_linear_400_566)" stroke-miterlimit="10"/>
<path d="M234.157 586.789C254.227 575.106 268.693 562.537 266.468 558.714C264.242 554.891 246.168 561.263 226.098 572.945C206.028 584.628 191.562 597.197 193.787 601.02C196.013 604.843 214.087 598.472 234.157 586.789Z" stroke="url(#paint3_linear_400_566)" stroke-miterlimit="10"/>
<path d="M234.217 587.014C255.603 574.032 271.02 560.347 268.654 556.448C266.287 552.549 247.032 559.912 225.646 572.894C204.261 585.876 188.843 599.561 191.21 603.46C193.577 607.359 212.832 599.996 234.217 587.014Z" stroke="url(#paint4_linear_400_566)" stroke-miterlimit="10"/>
<path d="M234.616 587.132C257.343 572.77 273.733 557.907 271.222 553.934C268.712 549.961 248.252 558.383 225.524 572.745C202.797 587.106 186.407 601.969 188.918 605.942C191.428 609.915 211.888 601.493 234.616 587.132Z" stroke="url(#paint5_linear_400_566)" stroke-miterlimit="10"/>
<path d="M234.823 587.194C258.971 571.337 276.394 555.204 273.739 551.16C271.083 547.116 249.355 556.693 225.207 572.549C201.06 588.406 183.637 604.539 186.292 608.583C188.947 612.627 210.676 603.05 234.823 587.194Z" stroke="url(#paint6_linear_400_566)" stroke-miterlimit="10"/>
<path d="M235.041 587.505C260.627 570.074 279.067 552.563 276.226 548.394C273.386 544.225 250.341 554.976 224.755 572.407C199.168 589.839 180.728 607.349 183.569 611.519C186.409 615.688 209.454 604.937 235.041 587.505Z" stroke="url(#paint7_linear_400_566)" stroke-miterlimit="10"/>
<path d="M235.383 587.693C262.482 568.562 281.995 549.575 278.966 545.284C275.937 540.994 251.513 553.024 224.414 572.155C197.315 591.286 177.802 610.273 180.831 614.564C183.86 618.854 208.284 606.824 235.383 587.693Z" stroke="url(#paint8_linear_400_566)" stroke-miterlimit="10"/>
<path d="M235.818 587.843C264.388 566.966 284.936 546.468 281.715 542.06C278.494 537.652 252.722 551.002 224.153 571.879C195.583 592.756 175.034 613.254 178.255 617.662C181.477 622.07 207.248 608.719 235.818 587.843Z" stroke="url(#paint9_linear_400_566)" stroke-miterlimit="10"/>
<path d="M236.205 588.218C266.313 565.472 287.951 543.366 284.535 538.845C281.119 534.323 253.942 549.097 223.834 571.843C193.725 594.589 172.087 616.695 175.503 621.216C178.919 625.738 206.096 610.964 236.205 588.218Z" stroke="url(#paint10_linear_400_566)" stroke-miterlimit="10"/>
<path d="M236.755 588.348C268.463 563.595 291.202 539.731 287.544 535.045C283.886 530.36 255.217 546.628 223.51 571.381C191.803 596.134 169.064 619.998 172.721 624.683C176.379 629.369 205.048 613.101 236.755 588.348Z" stroke="url(#paint11_linear_400_566)" stroke-miterlimit="10"/>
<path d="M237.043 588.748C270.297 561.947 294.091 536.295 290.188 531.452C286.285 526.609 256.163 544.41 222.909 571.211C189.654 598.011 165.86 623.664 169.763 628.507C173.666 633.349 203.788 615.549 237.043 588.748Z" stroke="url(#paint12_linear_400_566)" stroke-miterlimit="10"/>
<path d="M237.395 588.957C272.249 559.968 297.137 532.42 292.984 527.425C288.83 522.431 257.207 541.882 222.352 570.87C187.498 599.858 162.61 627.407 166.763 632.401C170.917 637.396 202.54 617.945 237.395 588.957Z" stroke="url(#paint13_linear_400_566)" stroke-miterlimit="10"/>
<path d="M237.984 589.159C274.44 557.885 300.419 528.366 296.009 523.225C291.599 518.084 258.471 539.269 222.015 570.543C185.559 601.817 159.58 631.336 163.99 636.477C168.399 641.617 201.528 620.432 237.984 589.159Z" stroke="url(#paint14_linear_400_566)" stroke-miterlimit="10"/>
<path d="M238.599 589.588C276.703 555.889 303.769 524.249 299.053 518.916C294.337 513.584 259.625 536.579 221.521 570.278C183.418 603.976 156.352 635.617 161.068 640.949C165.784 646.281 200.496 623.286 238.599 589.588Z" stroke="url(#paint15_linear_400_566)" stroke-miterlimit="10"/>
<path d="M239.182 590.018C278.865 553.841 306.921 520.001 301.846 514.434C296.771 508.867 260.487 533.681 220.803 569.858C181.12 606.035 153.064 639.876 158.139 645.443C163.214 651.009 199.498 626.195 239.182 590.018Z" stroke="url(#paint16_linear_400_566)" stroke-miterlimit="10"/>
<path d="M239.95 590.356C281.201 551.595 310.23 515.478 304.787 509.685C299.345 503.893 261.492 530.619 220.24 569.38C178.989 608.141 149.96 644.258 155.403 650.051C160.846 655.843 198.699 629.117 239.95 590.356Z" stroke="url(#paint17_linear_400_566)" stroke-miterlimit="10"/>
<path d="M240.623 590.736C283.42 549.291 313.398 510.823 307.581 504.815C301.763 498.808 262.352 527.535 219.555 568.981C176.757 610.426 146.779 648.894 152.597 654.902C158.415 660.909 197.825 632.181 240.623 590.736Z" stroke="url(#paint18_linear_400_566)" stroke-miterlimit="10"/>
<path d="M241.305 591.313C285.673 547.034 316.574 506.062 310.325 499.801C304.076 493.539 263.043 524.359 218.676 568.639C174.309 612.918 143.408 653.89 149.656 660.151C155.905 666.413 196.938 635.593 241.305 591.313Z" stroke="url(#paint19_linear_400_566)" stroke-miterlimit="10"/>
<path d="M242.159 591.703C287.969 544.573 319.681 501.094 312.991 494.591C306.3 488.088 263.74 521.023 217.93 568.154C172.121 615.285 140.408 658.764 147.099 665.267C153.789 671.77 196.349 638.834 242.159 591.703Z" stroke="url(#paint20_linear_400_566)" stroke-miterlimit="10"/>
<path d="M243.099 592.211C290.36 542.07 322.801 495.889 315.559 489.063C308.317 482.237 264.134 517.35 216.873 567.491C169.612 617.632 137.171 663.813 144.413 670.639C151.655 677.465 195.838 642.352 243.099 592.211Z" stroke="url(#paint21_linear_400_566)" stroke-miterlimit="10"/>
<path d="M244.066 592.751C292.693 539.54 325.826 490.659 318.071 483.573C310.317 476.486 264.611 513.877 215.984 567.089C167.357 620.3 134.223 669.181 141.978 676.268C149.733 683.354 195.439 645.963 244.066 592.751Z" stroke="url(#paint22_linear_400_566)" stroke-miterlimit="10"/>
<path d="M245.126 593.239C295.017 536.89 328.667 485.194 320.284 477.773C311.902 470.351 264.662 510.014 214.771 566.362C164.88 622.71 131.231 674.406 139.613 681.828C147.996 689.25 195.235 649.587 245.126 593.239Z" stroke="url(#paint23_linear_400_566)" stroke-miterlimit="10"/>
<path d="M246.482 594.053C297.592 534.456 331.667 479.834 322.591 472.05C313.515 464.267 264.725 506.27 213.615 565.867C162.505 625.463 128.43 680.086 137.506 687.869C146.582 695.653 195.372 653.65 246.482 594.053Z" stroke="url(#paint24_linear_400_566)" stroke-miterlimit="10"/>
<path d="M247.661 594.656C299.827 531.797 334.184 474.256 324.399 466.135C314.614 458.015 264.392 502.389 212.225 565.249C160.059 628.108 125.702 685.649 135.487 693.77C145.273 701.891 195.494 657.516 247.661 594.656Z" stroke="url(#paint25_linear_400_566)" stroke-miterlimit="10"/>
<path d="M249.206 595.205C302.359 528.954 336.84 468.34 326.221 459.82C315.601 451.299 263.903 498.1 210.749 564.35C157.595 630.601 123.115 691.215 133.734 699.735C144.354 708.256 196.052 661.456 249.206 595.205Z" stroke="url(#paint26_linear_400_566)" stroke-miterlimit="10"/>
<path d="M250.859 596.035C304.839 526.388 339.255 462.687 327.729 453.753C316.203 444.82 263.1 494.039 209.12 563.686C155.14 633.333 120.724 697.035 132.25 705.968C143.776 714.901 196.879 665.682 250.859 596.035Z" stroke="url(#paint27_linear_400_566)" stroke-miterlimit="10"/>
<path d="M252.727 596.991C307.404 523.881 341.543 456.998 328.98 447.602C316.417 438.207 261.909 489.857 207.232 562.966C152.555 636.075 118.415 702.959 130.978 712.354C143.541 721.75 198.05 670.1 252.727 596.991Z" stroke="url(#paint28_linear_400_566)" stroke-miterlimit="10"/>
<path d="M254.624 597.684C309.773 521.149 343.435 451.146 329.81 441.329C316.185 431.511 260.433 485.596 205.284 562.131C150.135 638.666 116.473 708.668 130.098 718.486C143.723 728.304 199.475 674.219 254.624 597.684Z" stroke="url(#paint29_linear_400_566)" stroke-miterlimit="10"/>
<path d="M256.832 598.57C312.308 518.546 345.217 445.311 330.337 434.995C315.456 424.68 258.421 481.19 202.946 561.215C147.47 641.239 114.561 714.474 129.441 724.79C144.322 735.105 201.356 678.595 256.832 598.57Z" stroke="url(#paint30_linear_400_566)" stroke-miterlimit="10"/>
<path d="M259.465 599.445C315.078 515.915 346.964 439.413 330.683 428.574C314.403 417.735 256.122 476.663 200.508 560.193C144.895 643.723 113.009 720.225 129.29 731.064C145.57 741.903 203.851 682.976 259.465 599.445Z" stroke="url(#paint31_linear_400_566)" stroke-miterlimit="10"/>
<path d="M262.234 600.35C317.783 513.309 348.41 433.555 330.641 422.215C312.871 410.875 253.435 472.242 197.886 559.283C142.336 646.324 111.71 726.078 129.479 737.418C147.248 748.759 206.685 687.391 262.234 600.35Z" stroke="url(#paint32_linear_400_566)" stroke-miterlimit="10"/>
<path d="M265.4 601.411C320.598 510.975 349.516 428 329.989 416.082C310.462 404.164 249.886 467.815 194.687 558.251C139.489 648.687 110.572 731.662 130.098 743.58C149.625 755.498 210.202 691.847 265.4 601.411Z" stroke="url(#paint33_linear_400_566)" stroke-miterlimit="10"/>
<path d="M268.775 602.456C323.409 508.627 350.365 422.472 328.984 410.022C307.602 397.572 245.979 463.542 191.345 557.371C136.711 651.2 109.755 737.355 131.137 749.805C152.519 762.255 214.141 696.285 268.775 602.456Z" stroke="url(#paint34_linear_400_566)" stroke-miterlimit="10"/>
<path d="M272.467 603.464C326.265 506.308 350.811 416.99 327.293 403.968C303.775 390.945 241.098 459.149 187.3 556.305C133.502 653.461 108.955 742.778 132.474 755.801C155.992 768.824 218.669 700.62 272.467 603.464Z" stroke="url(#paint35_linear_400_566)" stroke-miterlimit="10"/>
<path d="M276.992 604.659C329.705 504.245 351.406 411.803 325.461 398.183C299.516 384.562 235.751 454.923 183.038 555.337C130.324 655.75 108.624 748.193 134.569 761.813C160.514 775.433 224.279 705.073 276.992 604.659Z" stroke="url(#paint36_linear_400_566)" stroke-miterlimit="10"/>
<path d="M281.865 605.613C333.182 502.077 351.591 406.65 322.983 392.47C294.374 378.291 229.582 450.728 178.265 554.263C126.947 657.799 108.538 753.226 137.147 767.406C165.756 781.586 230.548 709.148 281.865 605.613Z" stroke="url(#paint37_linear_400_566)" stroke-miterlimit="10"/>
<path d="M287.365 606.57C337.009 500.004 351.607 401.667 319.969 386.929C288.331 372.19 222.439 446.631 172.795 553.196C123.15 659.762 108.553 758.099 140.19 772.837C171.828 787.576 237.72 713.135 287.365 606.57Z" stroke="url(#paint38_linear_400_566)" stroke-miterlimit="10"/>
<path d="M293.255 607.459C340.914 498.035 351.195 396.981 316.22 381.748C281.245 366.515 214.257 442.872 166.599 552.296C118.941 661.72 108.66 762.774 143.635 778.007C178.61 793.24 245.597 716.883 293.255 607.459Z" stroke="url(#paint39_linear_400_566)" stroke-miterlimit="10"/>
<path d="M300.234 608.435C345.612 496.332 350.929 392.716 312.109 377.003C273.289 361.289 205.034 439.428 159.656 551.53C114.277 663.633 108.961 767.249 147.78 782.963C186.6 798.677 254.856 720.538 300.234 608.435Z" stroke="url(#paint40_linear_400_566)" stroke-miterlimit="10"/>
<path d="M307.88 609.002C350.67 494.407 350.455 388.477 307.401 372.4C264.347 356.324 194.757 436.189 151.968 550.784C109.178 665.379 109.392 771.309 152.446 787.385C195.501 803.462 265.091 723.597 307.88 609.002Z" stroke="url(#paint41_linear_400_566)" stroke-miterlimit="10"/>
<path d="M316.64 609.564C356.555 492.695 350.105 384.699 302.232 368.349C254.36 351.999 183.194 433.485 143.278 550.354C103.363 667.223 109.813 775.218 157.686 791.569C205.558 807.919 276.724 726.433 316.64 609.564Z" stroke="url(#paint42_linear_400_566)" stroke-miterlimit="10"/>
<path d="M326.467 609.73C363.222 490.813 349.822 381.06 296.538 364.591C243.253 348.121 170.26 431.171 133.505 550.089C96.7494 669.006 110.149 778.758 163.434 795.228C216.719 811.697 289.711 728.647 326.467 609.73Z" stroke="url(#paint43_linear_400_566)" stroke-miterlimit="10"/>
<path d="M337.336 609.57C370.678 488.796 349.59 377.605 290.235 361.219C230.881 344.834 155.735 429.457 122.394 550.232C89.0518 671.006 110.139 782.197 169.494 798.583C228.849 814.968 303.994 730.345 337.336 609.57Z" stroke="url(#paint44_linear_400_566)" stroke-miterlimit="10"/>
<path d="M349.778 608.975C379.47 486.606 349.911 374.394 283.757 358.342C217.603 342.29 139.904 428.477 110.212 550.846C80.5202 673.214 110.079 785.427 176.233 801.479C242.388 817.53 320.086 731.343 349.778 608.975Z" stroke="url(#paint45_linear_400_566)" stroke-miterlimit="10"/>
<path d="M363.484 607.765C389.294 484.097 350.439 371.367 276.697 355.977C202.956 340.587 122.254 428.364 96.4438 552.033C70.6337 675.702 109.49 788.431 183.231 803.821C256.972 819.211 337.674 731.434 363.484 607.765Z" stroke="url(#paint46_linear_400_566)" stroke-miterlimit="10"/>
<path d="M378.98 605.94C400.744 481.147 351.661 368.346 269.351 353.992C187.041 339.637 102.673 429.164 80.9094 553.957C59.1458 678.749 108.228 791.55 190.538 805.905C272.848 820.26 357.216 730.732 378.98 605.94Z" stroke="url(#paint47_linear_400_566)" stroke-miterlimit="10"/>
<path d="M396.17 603.047C413.731 477.378 353.559 365.105 261.771 352.279C169.983 339.452 81.3385 430.929 63.7773 556.598C46.2161 682.267 106.389 794.54 198.176 807.367C289.964 820.193 378.609 728.716 396.17 603.047Z" stroke="url(#paint48_linear_400_566)" stroke-miterlimit="10"/>
<path d="M415.168 599.359C428.409 473.101 356.181 362.048 253.841 351.315C151.501 340.582 57.8039 434.233 44.5624 560.491C31.3208 686.749 103.549 797.803 205.889 808.536C308.229 819.269 401.926 725.617 415.168 599.359Z" stroke="url(#paint49_linear_400_566)" stroke-miterlimit="10"/>
<path d="M436.497 594.265C445.357 467.544 360.097 358.353 246.062 350.379C132.028 342.405 32.4009 438.668 23.5401 565.389C14.6792 692.11 99.9396 801.301 213.974 809.275C328.009 817.249 427.636 720.985 436.497 594.265Z" stroke="url(#paint50_linear_400_566)" stroke-miterlimit="10"/>
<path d="M230 809.907C357.026 809.907 460 706.933 460 579.907C460 452.882 357.026 349.907 230 349.907C102.975 349.907 0 452.882 0 579.907C0 706.933 102.975 809.907 230 809.907Z" stroke="url(#paint51_linear_400_566)" stroke-miterlimit="10"/>
</g>
</g>
</g>
<defs>
<linearGradient id="paint0_linear_400_566" x1="-125.987" y1="408.436" x2="536.815" y2="408.436" gradientUnits="userSpaceOnUse">
<stop stop-color="#8E2DE2"/>
<stop offset="1" stop-color="#4A00E0"/>
</linearGradient>
<linearGradient id="paint1_linear_400_566" x1="226.489" y1="573.251" x2="233.535" y2="586.512" gradientUnits="userSpaceOnUse">
<stop stop-color="#03BFC0"/>
<stop offset="1" stop-color="#8C5F80"/>
</linearGradient>
<linearGradient id="paint2_linear_400_566" x1="226.257" y1="573.119" x2="233.806" y2="586.676" gradientUnits="userSpaceOnUse">
<stop stop-color="#03BFC0"/>
<stop offset="1" stop-color="#8C5F80"/>
</linearGradient>
<linearGradient id="paint3_linear_400_566" x1="226.098" y1="572.945" x2="234.157" y2="586.789" gradientUnits="userSpaceOnUse">
<stop stop-color="#03BFC0"/>
<stop offset="1" stop-color="#8C5F80"/>
</linearGradient>
<linearGradient id="paint4_linear_400_566" x1="225.646" y1="572.894" x2="234.217" y2="587.014" gradientUnits="userSpaceOnUse">
<stop stop-color="#03BFC0"/>
<stop offset="1" stop-color="#8C5F80"/>
</linearGradient>
<linearGradient id="paint5_linear_400_566" x1="225.524" y1="572.745" x2="234.616" y2="587.132" gradientUnits="userSpaceOnUse">
<stop stop-color="#03BFC0"/>
<stop offset="1" stop-color="#8C5F80"/>
</linearGradient>
<linearGradient id="paint6_linear_400_566" x1="225.207" y1="572.549" x2="234.823" y2="587.194" gradientUnits="userSpaceOnUse">
<stop stop-color="#03BFC0"/>
<stop offset="1" stop-color="#8C5F80"/>
</linearGradient>
<linearGradient id="paint7_linear_400_566" x1="224.755" y1="572.407" x2="235.04" y2="587.505" gradientUnits="userSpaceOnUse">
<stop stop-color="#03BFC0"/>
<stop offset="1" stop-color="#8C5F80"/>
</linearGradient>
<linearGradient id="paint8_linear_400_566" x1="224.414" y1="572.155" x2="235.383" y2="587.693" gradientUnits="userSpaceOnUse">
<stop stop-color="#03BFC0"/>
<stop offset="1" stop-color="#8C5F80"/>
</linearGradient>
<linearGradient id="paint9_linear_400_566" x1="224.153" y1="571.879" x2="235.818" y2="587.843" gradientUnits="userSpaceOnUse">
<stop stop-color="#03BFC0"/>
<stop offset="1" stop-color="#8C5F80"/>
</linearGradient>
<linearGradient id="paint10_linear_400_566" x1="223.834" y1="571.843" x2="236.205" y2="588.218" gradientUnits="userSpaceOnUse">
<stop stop-color="#03BFC0"/>
<stop offset="1" stop-color="#8C5F80"/>
</linearGradient>
<linearGradient id="paint11_linear_400_566" x1="223.51" y1="571.381" x2="236.755" y2="588.348" gradientUnits="userSpaceOnUse">
<stop stop-color="#03BFC0"/>
<stop offset="1" stop-color="#8C5F80"/>
</linearGradient>
<linearGradient id="paint12_linear_400_566" x1="222.909" y1="571.211" x2="237.043" y2="588.748" gradientUnits="userSpaceOnUse">
<stop stop-color="#03BFC0"/>
<stop offset="1" stop-color="#8C5F80"/>
</linearGradient>
<linearGradient id="paint13_linear_400_566" x1="222.352" y1="570.87" x2="237.395" y2="588.957" gradientUnits="userSpaceOnUse">
<stop stop-color="#03BFC0"/>
<stop offset="1" stop-color="#8C5F80"/>
</linearGradient>
<linearGradient id="paint14_linear_400_566" x1="222.015" y1="570.543" x2="237.984" y2="589.159" gradientUnits="userSpaceOnUse">
<stop stop-color="#03BFC0"/>
<stop offset="1" stop-color="#8C5F80"/>
</linearGradient>
<linearGradient id="paint15_linear_400_566" x1="221.521" y1="570.278" x2="238.599" y2="589.588" gradientUnits="userSpaceOnUse">
<stop stop-color="#03BFC0"/>
<stop offset="1" stop-color="#8C5F80"/>
</linearGradient>
<linearGradient id="paint16_linear_400_566" x1="220.803" y1="569.858" x2="239.181" y2="590.018" gradientUnits="userSpaceOnUse">
<stop stop-color="#03BFC0"/>
<stop offset="1" stop-color="#8C5F80"/>
</linearGradient>
<linearGradient id="paint17_linear_400_566" x1="220.24" y1="569.38" x2="239.95" y2="590.356" gradientUnits="userSpaceOnUse">
<stop stop-color="#03BFC0"/>
<stop offset="1" stop-color="#8C5F80"/>
</linearGradient>
<linearGradient id="paint18_linear_400_566" x1="219.555" y1="568.981" x2="240.623" y2="590.736" gradientUnits="userSpaceOnUse">
<stop stop-color="#03BFC0"/>
<stop offset="1" stop-color="#8C5F80"/>
</linearGradient>
<linearGradient id="paint19_linear_400_566" x1="218.676" y1="568.639" x2="241.305" y2="591.313" gradientUnits="userSpaceOnUse">
<stop stop-color="#03BFC0"/>
<stop offset="1" stop-color="#8C5F80"/>
</linearGradient>
<linearGradient id="paint20_linear_400_566" x1="217.93" y1="568.154" x2="242.159" y2="591.703" gradientUnits="userSpaceOnUse">
<stop stop-color="#03BFC0"/>
<stop offset="1" stop-color="#8C5F80"/>
</linearGradient>
<linearGradient id="paint21_linear_400_566" x1="216.873" y1="567.491" x2="243.099" y2="592.211" gradientUnits="userSpaceOnUse">
<stop stop-color="#03BFC0"/>
<stop offset="1" stop-color="#8C5F80"/>
</linearGradient>
<linearGradient id="paint22_linear_400_566" x1="215.984" y1="567.089" x2="244.066" y2="592.751" gradientUnits="userSpaceOnUse">
<stop stop-color="#03BFC0"/>
<stop offset="1" stop-color="#8C5F80"/>
</linearGradient>
<linearGradient id="paint23_linear_400_566" x1="214.771" y1="566.362" x2="245.126" y2="593.239" gradientUnits="userSpaceOnUse">
<stop stop-color="#03BFC0"/>
<stop offset="1" stop-color="#8C5F80"/>
</linearGradient>
<linearGradient id="paint24_linear_400_566" x1="213.615" y1="565.867" x2="246.482" y2="594.053" gradientUnits="userSpaceOnUse">
<stop stop-color="#03BFC0"/>
<stop offset="1" stop-color="#8C5F80"/>
</linearGradient>
<linearGradient id="paint25_linear_400_566" x1="212.225" y1="565.249" x2="247.661" y2="594.656" gradientUnits="userSpaceOnUse">
<stop stop-color="#03BFC0"/>
<stop offset="1" stop-color="#8C5F80"/>
</linearGradient>
<linearGradient id="paint26_linear_400_566" x1="210.749" y1="564.35" x2="249.206" y2="595.205" gradientUnits="userSpaceOnUse">
<stop stop-color="#03BFC0"/>
<stop offset="1" stop-color="#8C5F80"/>
</linearGradient>
<linearGradient id="paint27_linear_400_566" x1="209.12" y1="563.686" x2="250.859" y2="596.035" gradientUnits="userSpaceOnUse">
<stop stop-color="#03BFC0"/>
<stop offset="1" stop-color="#8C5F80"/>
</linearGradient>
<linearGradient id="paint28_linear_400_566" x1="207.232" y1="562.966" x2="252.727" y2="596.991" gradientUnits="userSpaceOnUse">
<stop stop-color="#03BFC0"/>
<stop offset="1" stop-color="#8C5F80"/>
</linearGradient>
<linearGradient id="paint29_linear_400_566" x1="205.284" y1="562.131" x2="254.624" y2="597.684" gradientUnits="userSpaceOnUse">
<stop stop-color="#03BFC0"/>
<stop offset="1" stop-color="#8C5F80"/>
</linearGradient>
<linearGradient id="paint30_linear_400_566" x1="202.946" y1="561.215" x2="256.832" y2="598.57" gradientUnits="userSpaceOnUse">
<stop stop-color="#03BFC0"/>
<stop offset="1" stop-color="#8C5F80"/>
</linearGradient>
<linearGradient id="paint31_linear_400_566" x1="200.508" y1="560.193" x2="259.465" y2="599.445" gradientUnits="userSpaceOnUse">
<stop stop-color="#03BFC0"/>
<stop offset="1" stop-color="#8C5F80"/>
</linearGradient>
<linearGradient id="paint32_linear_400_566" x1="197.886" y1="559.283" x2="262.234" y2="600.35" gradientUnits="userSpaceOnUse">
<stop stop-color="#03BFC0"/>
<stop offset="1" stop-color="#8C5F80"/>
</linearGradient>
<linearGradient id="paint33_linear_400_566" x1="194.687" y1="558.251" x2="265.4" y2="601.411" gradientUnits="userSpaceOnUse">
<stop stop-color="#03BFC0"/>
<stop offset="1" stop-color="#8C5F80"/>
</linearGradient>
<linearGradient id="paint34_linear_400_566" x1="191.345" y1="557.371" x2="268.775" y2="602.456" gradientUnits="userSpaceOnUse">
<stop stop-color="#03BFC0"/>
<stop offset="1" stop-color="#8C5F80"/>
</linearGradient>
<linearGradient id="paint35_linear_400_566" x1="187.3" y1="556.305" x2="272.467" y2="603.464" gradientUnits="userSpaceOnUse">
<stop stop-color="#03BFC0"/>
<stop offset="1" stop-color="#8C5F80"/>
</linearGradient>
<linearGradient id="paint36_linear_400_566" x1="183.038" y1="555.337" x2="276.992" y2="604.659" gradientUnits="userSpaceOnUse">
<stop stop-color="#03BFC0"/>
<stop offset="1" stop-color="#8C5F80"/>
</linearGradient>
<linearGradient id="paint37_linear_400_566" x1="178.265" y1="554.263" x2="281.865" y2="605.613" gradientUnits="userSpaceOnUse">
<stop stop-color="#03BFC0"/>
<stop offset="1" stop-color="#8C5F80"/>
</linearGradient>
<linearGradient id="paint38_linear_400_566" x1="172.795" y1="553.196" x2="287.365" y2="606.57" gradientUnits="userSpaceOnUse">
<stop stop-color="#03BFC0"/>
<stop offset="1" stop-color="#8C5F80"/>
</linearGradient>
<linearGradient id="paint39_linear_400_566" x1="166.599" y1="552.296" x2="293.255" y2="607.459" gradientUnits="userSpaceOnUse">
<stop stop-color="#03BFC0"/>
<stop offset="1" stop-color="#8C5F80"/>
</linearGradient>
<linearGradient id="paint40_linear_400_566" x1="159.656" y1="551.53" x2="300.234" y2="608.435" gradientUnits="userSpaceOnUse">
<stop stop-color="#03BFC0"/>
<stop offset="1" stop-color="#8C5F80"/>
</linearGradient>
<linearGradient id="paint41_linear_400_566" x1="151.968" y1="550.784" x2="307.88" y2="609.002" gradientUnits="userSpaceOnUse">
<stop stop-color="#03BFC0"/>
<stop offset="1" stop-color="#8C5F80"/>
</linearGradient>
<linearGradient id="paint42_linear_400_566" x1="143.278" y1="550.354" x2="316.64" y2="609.564" gradientUnits="userSpaceOnUse">
<stop stop-color="#03BFC0"/>
<stop offset="1" stop-color="#8C5F80"/>
</linearGradient>
<linearGradient id="paint43_linear_400_566" x1="133.505" y1="550.089" x2="326.467" y2="609.73" gradientUnits="userSpaceOnUse">
<stop stop-color="#03BFC0"/>
<stop offset="1" stop-color="#8C5F80"/>
</linearGradient>
<linearGradient id="paint44_linear_400_566" x1="122.393" y1="550.232" x2="337.336" y2="609.57" gradientUnits="userSpaceOnUse">
<stop stop-color="#03BFC0"/>
<stop offset="1" stop-color="#8C5F80"/>
</linearGradient>
<linearGradient id="paint45_linear_400_566" x1="110.212" y1="550.846" x2="349.778" y2="608.975" gradientUnits="userSpaceOnUse">
<stop stop-color="#03BFC0"/>
<stop offset="1" stop-color="#8C5F80"/>
</linearGradient>
<linearGradient id="paint46_linear_400_566" x1="96.4438" y1="552.033" x2="363.484" y2="607.765" gradientUnits="userSpaceOnUse">
<stop stop-color="#03BFC0"/>
<stop offset="1" stop-color="#8C5F80"/>
</linearGradient>
<linearGradient id="paint47_linear_400_566" x1="80.9094" y1="553.957" x2="378.98" y2="605.94" gradientUnits="userSpaceOnUse">
<stop stop-color="#03BFC0"/>
<stop offset="1" stop-color="#8C5F80"/>
</linearGradient>
<linearGradient id="paint48_linear_400_566" x1="63.7773" y1="556.598" x2="396.17" y2="603.047" gradientUnits="userSpaceOnUse">
<stop stop-color="#03BFC0"/>
<stop offset="1" stop-color="#8C5F80"/>
</linearGradient>
<linearGradient id="paint49_linear_400_566" x1="44.5624" y1="560.491" x2="415.168" y2="599.359" gradientUnits="userSpaceOnUse">
<stop stop-color="#03BFC0"/>
<stop offset="1" stop-color="#8C5F80"/>
</linearGradient>
<linearGradient id="paint50_linear_400_566" x1="23.5401" y1="565.389" x2="436.497" y2="594.265" gradientUnits="userSpaceOnUse">
<stop stop-color="#03BFC0"/>
<stop offset="1" stop-color="#8C5F80"/>
</linearGradient>
<linearGradient id="paint51_linear_400_566" x1="230" y1="349.907" x2="230" y2="809.907" gradientUnits="userSpaceOnUse">
<stop stop-color="#03BFC0"/>
<stop offset="1" stop-color="#8C5F80"/>
</linearGradient>
</defs>
</svg>
