<svg width="1280" height="832" viewBox="0 0 1280 832" fill="none" xmlns="http://www.w3.org/2000/svg">
<g opacity="0.5">
<mask id="mask0_276_151" style="mask-type:alpha" maskUnits="userSpaceOnUse" x="0" y="0" width="1280" height="832">
<rect width="1280" height="832" fill="url(#paint0_linear_276_151)"/>
</mask>
<g mask="url(#mask0_276_151)">
<g style="mix-blend-mode:luminosity">
<path d="M647.07 429.024C682.224 410.346 707.567 389.268 703.676 381.944C699.785 374.62 668.132 383.825 632.978 402.502C597.824 421.18 572.48 442.259 576.371 449.582C580.263 456.906 611.915 447.702 647.07 429.024Z" stroke="url(#paint1_linear_276_151)" stroke-width="2" stroke-miterlimit="10"/>
<path d="M647.612 429.353C685.169 408.44 712.236 385.416 708.067 377.929C703.898 370.442 670.071 381.325 632.514 402.238C594.956 423.152 567.89 446.175 572.059 453.662C576.228 461.149 610.054 450.266 647.612 429.353Z" stroke="url(#paint2_linear_276_151)" stroke-width="2" stroke-miterlimit="10"/>
<path d="M648.313 429.578C688.454 406.213 717.386 381.073 712.935 373.428C708.485 365.782 672.337 378.525 632.197 401.89C592.057 425.255 563.124 450.395 567.575 458.04C572.026 465.686 608.173 452.943 648.313 429.578Z" stroke="url(#paint3_linear_276_151)" stroke-width="2" stroke-miterlimit="10"/>
<path d="M648.435 430.028C691.206 404.064 722.041 376.695 717.307 368.897C712.573 361.099 674.063 375.825 631.292 401.788C588.521 427.752 557.686 455.122 562.42 462.92C567.154 470.718 605.664 455.991 648.435 430.028Z" stroke="url(#paint4_linear_276_151)" stroke-width="2" stroke-miterlimit="10"/>
<path d="M649.231 430.264C694.687 401.541 727.466 371.815 722.445 363.869C717.424 355.923 676.504 372.766 631.049 401.489C585.593 430.212 552.814 459.938 557.835 467.884C562.856 475.83 603.776 458.987 649.231 430.264Z" stroke="url(#paint5_linear_276_151)" stroke-width="2" stroke-miterlimit="10"/>
<path d="M649.647 430.387C697.942 398.673 732.788 366.408 727.477 358.32C722.166 350.233 678.71 369.385 630.414 401.099C582.119 432.812 547.273 465.078 552.584 473.165C557.895 481.253 601.351 462.101 649.647 430.387Z" stroke="url(#paint6_linear_276_151)" stroke-width="2" stroke-miterlimit="10"/>
<path d="M650.081 431.011C701.254 396.148 738.133 361.127 732.452 352.788C726.772 344.45 680.683 365.952 629.509 400.815C578.336 435.677 541.457 470.699 547.137 479.037C552.818 487.376 598.908 465.874 650.081 431.011Z" stroke="url(#paint7_linear_276_151)" stroke-width="2" stroke-miterlimit="10"/>
<path d="M650.767 431.386C704.965 393.124 743.991 355.15 737.932 346.569C731.874 337.987 683.027 362.048 628.829 400.31C574.63 438.572 535.605 476.546 541.663 485.127C547.721 493.709 596.569 469.648 650.767 431.386Z" stroke="url(#paint8_linear_276_151)" stroke-width="2" stroke-miterlimit="10"/>
<path d="M651.636 431.685C708.776 389.931 749.873 348.936 743.431 340.12C736.988 331.303 685.445 358.004 628.306 399.758C571.167 441.512 530.069 482.508 536.511 491.324C542.954 500.14 594.497 473.439 651.636 431.685Z" stroke="url(#paint9_linear_276_151)" stroke-width="2" stroke-miterlimit="10"/>
<path d="M652.409 432.436C712.626 386.943 755.902 342.733 749.07 333.689C742.238 324.646 687.884 354.193 627.668 399.686C567.451 445.179 524.174 489.389 531.007 498.433C537.839 507.476 592.193 477.928 652.409 432.436Z" stroke="url(#paint10_linear_276_151)" stroke-width="2" stroke-miterlimit="10"/>
<path d="M653.511 432.696C716.926 383.19 762.403 335.461 755.088 326.091C747.773 316.72 690.435 349.256 627.02 398.762C563.605 448.268 518.128 495.996 525.443 505.367C532.758 514.738 590.096 482.201 653.511 432.696Z" stroke="url(#paint11_linear_276_151)" stroke-width="2" stroke-miterlimit="10"/>
<path d="M654.085 433.496C720.594 379.895 768.182 328.59 760.376 318.905C752.57 309.219 692.326 344.82 625.817 398.421C559.309 452.023 511.721 503.327 519.527 513.013C527.333 522.699 587.577 487.098 654.085 433.496Z" stroke="url(#paint12_linear_276_151)" stroke-width="2" stroke-miterlimit="10"/>
<path d="M654.789 433.913C724.499 375.936 774.275 320.84 765.967 310.851C757.66 300.862 694.414 339.764 624.705 397.74C554.995 455.717 505.219 510.813 513.527 520.802C521.834 530.791 585.08 491.889 654.789 433.913Z" stroke="url(#paint13_linear_276_151)" stroke-width="2" stroke-miterlimit="10"/>
<path d="M655.968 434.318C728.88 371.77 780.838 312.731 772.018 302.45C763.198 292.169 696.942 334.539 624.029 397.086C551.117 459.633 499.159 518.672 507.979 528.954C516.798 539.235 583.055 496.865 655.968 434.318Z" stroke="url(#paint14_linear_276_151)" stroke-width="2" stroke-miterlimit="10"/>
<path d="M657.198 435.176C733.405 367.779 787.537 304.498 778.105 293.833C768.673 283.168 699.249 329.158 623.042 396.555C546.836 463.952 492.704 527.233 502.136 537.898C511.568 548.563 580.992 502.572 657.198 435.176Z" stroke="url(#paint15_linear_276_151)" stroke-width="2" stroke-miterlimit="10"/>
<path d="M658.363 436.036C737.73 363.682 793.842 296.002 783.692 284.868C773.542 273.734 700.974 323.363 621.607 395.717C542.239 468.071 486.128 535.751 496.278 546.885C506.428 558.019 578.996 508.39 658.363 436.036Z" stroke="url(#paint16_linear_276_151)" stroke-width="2" stroke-miterlimit="10"/>
<path d="M659.9 436.712C742.402 359.19 800.46 286.955 789.575 275.371C778.689 263.786 702.984 317.239 620.481 394.76C537.978 472.282 479.921 544.517 490.806 556.102C501.691 567.686 577.397 514.234 659.9 436.712Z" stroke="url(#paint17_linear_276_151)" stroke-width="2" stroke-miterlimit="10"/>
<path d="M661.245 437.472C746.841 354.581 806.797 277.645 795.161 265.63C783.526 253.615 704.705 311.071 619.11 393.961C533.515 476.852 473.558 553.788 485.194 565.803C496.829 577.818 575.65 520.362 661.245 437.472Z" stroke="url(#paint18_linear_276_151)" stroke-width="2" stroke-miterlimit="10"/>
<path d="M662.611 438.626C751.345 350.067 813.147 268.124 800.65 255.602C788.152 243.079 706.087 304.719 617.352 393.278C528.617 481.837 466.815 563.78 479.313 576.303C491.811 588.825 573.876 527.185 662.611 438.626Z" stroke="url(#paint19_linear_276_151)" stroke-width="2" stroke-miterlimit="10"/>
<path d="M664.318 439.407C755.937 345.145 819.362 258.187 805.981 245.181C792.6 232.175 707.48 298.046 615.861 392.308C524.241 486.57 460.816 573.528 474.197 586.533C487.578 599.539 572.698 533.669 664.318 439.407Z" stroke="url(#paint20_linear_276_151)" stroke-width="2" stroke-miterlimit="10"/>
<path d="M666.198 440.421C760.72 340.139 825.603 247.777 811.119 234.125C796.635 220.473 708.269 290.701 613.747 390.983C519.225 491.265 454.342 583.627 468.826 597.279C483.31 610.931 571.677 540.703 666.198 440.421Z" stroke="url(#paint21_linear_276_151)" stroke-width="2" stroke-miterlimit="10"/>
<path d="M668.132 441.503C765.385 335.08 831.652 237.318 816.143 223.145C800.634 208.972 709.221 283.755 611.967 390.177C514.714 496.6 448.447 594.362 463.956 608.535C479.466 622.708 570.878 547.925 668.132 441.503Z" stroke="url(#paint22_linear_276_151)" stroke-width="2" stroke-miterlimit="10"/>
<path d="M670.253 442.477C770.035 329.781 837.334 226.389 820.569 211.545C803.804 196.702 709.324 276.027 609.543 388.724C509.761 501.421 442.462 604.813 459.227 619.656C475.992 634.5 570.471 555.174 670.253 442.477Z" stroke="url(#paint23_linear_276_151)" stroke-width="2" stroke-miterlimit="10"/>
<path d="M672.964 444.106C775.184 324.913 843.334 215.668 825.183 200.101C807.031 184.534 709.45 268.54 607.231 387.733C505.011 506.927 436.86 616.172 455.012 631.739C473.164 647.306 570.744 563.3 672.964 444.106Z" stroke="url(#paint24_linear_276_151)" stroke-width="2" stroke-miterlimit="10"/>
<path d="M675.322 445.313C779.655 319.594 848.368 204.512 828.798 188.271C809.227 172.029 708.784 260.779 604.451 386.498C500.118 512.217 431.404 627.299 450.975 643.54C470.545 659.782 570.989 571.032 675.322 445.313Z" stroke="url(#paint25_linear_276_151)" stroke-width="2" stroke-miterlimit="10"/>
<path d="M678.411 446.409C784.718 313.907 853.68 192.679 832.441 175.639C811.202 158.599 707.805 252.199 601.498 384.701C495.19 517.203 426.229 638.43 447.468 655.471C468.707 672.511 572.104 578.911 678.411 446.409Z" stroke="url(#paint26_linear_276_151)" stroke-width="2" stroke-miterlimit="10"/>
<path d="M681.718 448.071C789.678 308.777 858.51 181.373 835.458 163.507C812.406 145.641 706.2 244.077 598.24 383.371C490.281 522.665 421.449 650.069 444.501 667.935C467.553 685.802 573.759 587.365 681.718 448.071Z" stroke="url(#paint27_linear_276_151)" stroke-width="2" stroke-miterlimit="10"/>
<path d="M685.454 449.981C794.807 303.763 863.087 169.996 837.961 151.205C812.835 132.414 703.817 235.714 594.464 381.932C485.11 528.151 416.831 661.918 441.957 680.709C467.083 699.5 576.1 596.2 685.454 449.981Z" stroke="url(#paint28_linear_276_151)" stroke-width="2" stroke-miterlimit="10"/>
<path d="M689.248 451.368C799.546 298.298 866.87 158.293 839.62 138.657C812.37 119.022 700.866 227.192 590.568 380.262C480.27 533.331 412.947 673.337 440.197 692.972C467.446 712.607 578.951 604.438 689.248 451.368Z" stroke="url(#paint29_linear_276_151)" stroke-width="2" stroke-miterlimit="10"/>
<path d="M693.664 453.141C804.615 293.092 870.433 146.622 840.673 125.991C810.912 105.36 696.842 218.38 585.891 378.429C474.939 538.478 409.121 684.948 438.882 705.579C468.643 726.21 582.712 613.19 693.664 453.141Z" stroke="url(#paint30_linear_276_151)" stroke-width="2" stroke-miterlimit="10"/>
<path d="M698.929 454.891C810.155 287.83 873.927 134.827 841.366 113.148C808.805 91.47 692.243 209.325 581.016 376.386C469.79 543.447 406.018 696.45 438.579 718.129C471.14 739.807 587.702 621.951 698.929 454.891Z" stroke="url(#paint31_linear_276_151)" stroke-width="2" stroke-miterlimit="10"/>
<path d="M704.469 456.7C815.567 282.619 876.821 123.111 841.282 100.43C805.743 77.7493 686.87 200.484 575.772 374.566C464.673 548.648 403.42 708.156 438.959 730.836C474.497 753.517 593.37 630.782 704.469 456.7Z" stroke="url(#paint32_linear_276_151)" stroke-width="2" stroke-miterlimit="10"/>
<path d="M710.8 458.822C821.196 277.949 879.031 112.001 839.978 88.1641C800.924 64.3277 679.771 191.63 569.375 372.502C458.978 553.375 401.143 719.324 440.197 743.16C479.25 766.997 600.403 639.694 710.8 458.822Z" stroke="url(#paint33_linear_276_151)" stroke-width="2" stroke-miterlimit="10"/>
<path d="M717.55 460.912C826.818 273.255 880.73 100.943 837.967 76.0431C795.204 51.1431 671.958 183.084 562.69 370.742C453.422 558.399 399.51 730.711 442.273 755.611C485.037 780.511 608.282 648.57 717.55 460.912Z" stroke="url(#paint34_linear_276_151)" stroke-width="2" stroke-miterlimit="10"/>
<path d="M724.934 462.928C832.529 268.615 881.623 89.9806 834.586 63.9353C787.55 37.89 662.196 174.297 554.6 368.609C447.004 562.922 397.911 741.557 444.947 767.602C491.984 793.647 617.338 657.24 724.934 462.928Z" stroke="url(#paint35_linear_276_151)" stroke-width="2" stroke-miterlimit="10"/>
<path d="M733.984 465.318C839.41 264.49 882.811 79.605 830.921 52.365C779.031 25.125 651.501 165.845 546.075 366.673C440.648 567.501 397.248 752.386 449.138 779.626C501.027 806.866 628.557 666.146 733.984 465.318Z" stroke="url(#paint36_linear_276_151)" stroke-width="2" stroke-miterlimit="10"/>
<path d="M743.731 467.225C846.365 260.154 883.183 69.2999 825.966 40.9404C768.749 12.5809 639.164 157.455 536.529 364.527C433.895 571.598 397.077 762.452 454.294 790.812C511.511 819.171 641.096 674.297 743.731 467.225Z" stroke="url(#paint37_linear_276_151)" stroke-width="2" stroke-miterlimit="10"/>
<path d="M754.729 469.139C854.018 256.008 883.213 59.3346 819.937 29.8573C756.662 0.379985 624.877 149.261 525.589 362.392C426.3 575.524 397.105 772.197 460.38 801.674C523.656 831.152 655.44 682.271 754.729 469.139Z" stroke="url(#paint38_linear_276_151)" stroke-width="2" stroke-miterlimit="10"/>
<path d="M766.51 470.919C861.827 252.071 882.39 49.9622 812.44 19.4964C742.489 -10.9695 608.515 141.744 513.198 360.592C417.882 579.44 397.319 781.549 467.269 812.015C537.219 842.481 671.194 689.767 766.51 470.919Z" stroke="url(#paint39_linear_276_151)" stroke-width="2" stroke-miterlimit="10"/>
<path d="M780.468 472.87C871.224 248.664 881.858 41.4329 804.218 10.0053C726.579 -21.4223 590.068 134.855 499.312 359.061C408.555 583.266 397.922 790.498 475.561 821.925C553.2 853.353 689.712 697.076 780.468 472.87Z" stroke="url(#paint40_linear_276_151)" stroke-width="2" stroke-miterlimit="10"/>
<path d="M795.76 474.003C881.34 244.813 880.911 32.9532 794.803 0.800543C708.695 -31.3521 569.515 128.378 483.935 357.568C398.356 586.758 398.785 798.618 484.893 830.771C571.001 862.923 710.181 703.193 795.76 474.003Z" stroke="url(#paint41_linear_276_151)" stroke-width="2" stroke-miterlimit="10"/>
<path d="M813.279 475.127C893.11 241.39 880.209 25.3988 784.465 -7.30194C688.72 -40.0027 546.387 122.97 466.557 356.708C386.726 590.445 399.626 806.436 495.371 839.137C591.116 871.838 733.448 708.865 813.279 475.127Z" stroke="url(#paint42_linear_276_151)" stroke-width="2" stroke-miterlimit="10"/>
<path d="M832.934 475.46C906.445 237.626 879.645 18.121 773.075 -14.8181C666.506 -47.7573 520.521 118.343 447.01 356.177C373.499 594.011 400.299 813.517 506.868 846.456C613.438 879.395 759.423 713.295 832.934 475.46Z" stroke="url(#paint43_linear_276_151)" stroke-width="2" stroke-miterlimit="10"/>
<path d="M854.672 475.14C921.355 233.591 879.18 11.2106 760.471 -21.561C641.761 -54.3326 491.47 114.915 424.787 356.464C358.104 598.013 400.279 820.394 518.988 853.165C637.698 885.937 787.988 716.689 854.672 475.14Z" stroke="url(#paint44_linear_276_151)" stroke-width="2" stroke-miterlimit="10"/>
<path d="M879.557 473.949C938.941 229.212 879.823 4.78771 747.515 -27.316C615.206 -59.4197 459.808 112.954 400.425 357.691C341.041 602.429 400.158 826.853 532.467 858.957C664.776 891.061 820.173 718.687 879.557 473.949Z" stroke="url(#paint45_linear_276_151)" stroke-width="2" stroke-miterlimit="10"/>
<path d="M906.969 471.531C958.589 224.193 880.877 -1.26534 733.395 -32.0455C585.912 -62.8256 424.508 112.729 372.888 360.066C321.267 607.404 398.979 832.863 546.461 863.643C693.944 894.423 855.348 718.868 906.969 471.531Z" stroke="url(#paint46_linear_276_151)" stroke-width="2" stroke-miterlimit="10"/>
<path d="M937.959 467.879C981.487 218.294 883.322 -7.30741 718.702 -36.0169C554.082 -64.7263 385.346 114.328 341.818 363.913C298.291 613.498 396.456 839.1 561.076 867.81C725.696 896.519 894.432 717.464 937.959 467.879Z" stroke="url(#paint47_linear_276_151)" stroke-width="2" stroke-miterlimit="10"/>
<path d="M972.341 462.095C1007.46 210.756 887.118 -13.7895 703.542 -39.4426C519.967 -65.0958 342.677 117.858 307.555 369.197C272.432 620.535 392.777 845.081 576.353 870.734C759.929 896.387 937.218 713.433 972.341 462.095Z" stroke="url(#paint48_linear_276_151)" stroke-width="2" stroke-miterlimit="10"/>
<path d="M1010.34 454.718C1036.82 202.202 892.362 -19.9047 687.682 -41.3708C483.002 -62.837 295.608 124.466 269.125 376.982C242.642 629.499 387.099 851.605 591.778 873.072C796.458 894.538 983.853 707.234 1010.34 454.718Z" stroke="url(#paint49_linear_276_151)" stroke-width="2" stroke-miterlimit="10"/>
<path d="M1052.99 444.53C1070.71 191.088 900.194 -27.2943 672.124 -43.2419C444.055 -59.1895 244.801 133.337 227.08 386.778C209.358 640.22 379.879 858.603 607.948 874.55C836.018 890.498 1035.27 697.971 1052.99 444.53Z" stroke="url(#paint50_linear_276_151)" stroke-width="2" stroke-miterlimit="10"/>
<path d="M640 875.814C894.051 875.814 1100 669.865 1100 415.814C1100 161.763 894.051 -44.1858 640 -44.1858C385.949 -44.1858 180 161.763 180 415.814C180 669.865 385.949 875.814 640 875.814Z" stroke="url(#paint51_linear_276_151)" stroke-width="2" stroke-miterlimit="10"/>
</g>
</g>
</g>
<defs>
<linearGradient id="paint0_linear_276_151" x1="-375.032" y1="408.436" x2="1597.96" y2="408.436" gradientUnits="userSpaceOnUse">
<stop stop-color="#8E2DE2"/>
<stop offset="1" stop-color="#4A00E0"/>
</linearGradient>
<linearGradient id="paint1_linear_276_151" x1="632.978" y1="402.502" x2="647.069" y2="429.024" gradientUnits="userSpaceOnUse">
<stop stop-color="#03BFC0"/>
<stop offset="1" stop-color="#8C5F80"/>
</linearGradient>
<linearGradient id="paint2_linear_276_151" x1="632.514" y1="402.238" x2="647.612" y2="429.353" gradientUnits="userSpaceOnUse">
<stop stop-color="#03BFC0"/>
<stop offset="1" stop-color="#8C5F80"/>
</linearGradient>
<linearGradient id="paint3_linear_276_151" x1="632.197" y1="401.89" x2="648.313" y2="429.578" gradientUnits="userSpaceOnUse">
<stop stop-color="#03BFC0"/>
<stop offset="1" stop-color="#8C5F80"/>
</linearGradient>
<linearGradient id="paint4_linear_276_151" x1="631.292" y1="401.788" x2="648.435" y2="430.028" gradientUnits="userSpaceOnUse">
<stop stop-color="#03BFC0"/>
<stop offset="1" stop-color="#8C5F80"/>
</linearGradient>
<linearGradient id="paint5_linear_276_151" x1="631.049" y1="401.489" x2="649.231" y2="430.264" gradientUnits="userSpaceOnUse">
<stop stop-color="#03BFC0"/>
<stop offset="1" stop-color="#8C5F80"/>
</linearGradient>
<linearGradient id="paint6_linear_276_151" x1="630.414" y1="401.099" x2="649.647" y2="430.387" gradientUnits="userSpaceOnUse">
<stop stop-color="#03BFC0"/>
<stop offset="1" stop-color="#8C5F80"/>
</linearGradient>
<linearGradient id="paint7_linear_276_151" x1="629.509" y1="400.815" x2="650.081" y2="431.011" gradientUnits="userSpaceOnUse">
<stop stop-color="#03BFC0"/>
<stop offset="1" stop-color="#8C5F80"/>
</linearGradient>
<linearGradient id="paint8_linear_276_151" x1="628.829" y1="400.31" x2="650.767" y2="431.386" gradientUnits="userSpaceOnUse">
<stop stop-color="#03BFC0"/>
<stop offset="1" stop-color="#8C5F80"/>
</linearGradient>
<linearGradient id="paint9_linear_276_151" x1="628.306" y1="399.758" x2="651.636" y2="431.685" gradientUnits="userSpaceOnUse">
<stop stop-color="#03BFC0"/>
<stop offset="1" stop-color="#8C5F80"/>
</linearGradient>
<linearGradient id="paint10_linear_276_151" x1="627.668" y1="399.686" x2="652.409" y2="432.436" gradientUnits="userSpaceOnUse">
<stop stop-color="#03BFC0"/>
<stop offset="1" stop-color="#8C5F80"/>
</linearGradient>
<linearGradient id="paint11_linear_276_151" x1="627.02" y1="398.762" x2="653.511" y2="432.696" gradientUnits="userSpaceOnUse">
<stop stop-color="#03BFC0"/>
<stop offset="1" stop-color="#8C5F80"/>
</linearGradient>
<linearGradient id="paint12_linear_276_151" x1="625.817" y1="398.421" x2="654.085" y2="433.496" gradientUnits="userSpaceOnUse">
<stop stop-color="#03BFC0"/>
<stop offset="1" stop-color="#8C5F80"/>
</linearGradient>
<linearGradient id="paint13_linear_276_151" x1="624.705" y1="397.74" x2="654.789" y2="433.913" gradientUnits="userSpaceOnUse">
<stop stop-color="#03BFC0"/>
<stop offset="1" stop-color="#8C5F80"/>
</linearGradient>
<linearGradient id="paint14_linear_276_151" x1="624.029" y1="397.086" x2="655.968" y2="434.318" gradientUnits="userSpaceOnUse">
<stop stop-color="#03BFC0"/>
<stop offset="1" stop-color="#8C5F80"/>
</linearGradient>
<linearGradient id="paint15_linear_276_151" x1="623.042" y1="396.555" x2="657.198" y2="435.176" gradientUnits="userSpaceOnUse">
<stop stop-color="#03BFC0"/>
<stop offset="1" stop-color="#8C5F80"/>
</linearGradient>
<linearGradient id="paint16_linear_276_151" x1="621.606" y1="395.717" x2="658.363" y2="436.036" gradientUnits="userSpaceOnUse">
<stop stop-color="#03BFC0"/>
<stop offset="1" stop-color="#8C5F80"/>
</linearGradient>
<linearGradient id="paint17_linear_276_151" x1="620.481" y1="394.76" x2="659.9" y2="436.712" gradientUnits="userSpaceOnUse">
<stop stop-color="#03BFC0"/>
<stop offset="1" stop-color="#8C5F80"/>
</linearGradient>
<linearGradient id="paint18_linear_276_151" x1="619.11" y1="393.961" x2="661.245" y2="437.472" gradientUnits="userSpaceOnUse">
<stop stop-color="#03BFC0"/>
<stop offset="1" stop-color="#8C5F80"/>
</linearGradient>
<linearGradient id="paint19_linear_276_151" x1="617.352" y1="393.278" x2="662.611" y2="438.626" gradientUnits="userSpaceOnUse">
<stop stop-color="#03BFC0"/>
<stop offset="1" stop-color="#8C5F80"/>
</linearGradient>
<linearGradient id="paint20_linear_276_151" x1="615.861" y1="392.308" x2="664.318" y2="439.407" gradientUnits="userSpaceOnUse">
<stop stop-color="#03BFC0"/>
<stop offset="1" stop-color="#8C5F80"/>
</linearGradient>
<linearGradient id="paint21_linear_276_151" x1="613.747" y1="390.983" x2="666.198" y2="440.421" gradientUnits="userSpaceOnUse">
<stop stop-color="#03BFC0"/>
<stop offset="1" stop-color="#8C5F80"/>
</linearGradient>
<linearGradient id="paint22_linear_276_151" x1="611.967" y1="390.177" x2="668.132" y2="441.503" gradientUnits="userSpaceOnUse">
<stop stop-color="#03BFC0"/>
<stop offset="1" stop-color="#8C5F80"/>
</linearGradient>
<linearGradient id="paint23_linear_276_151" x1="609.543" y1="388.724" x2="670.253" y2="442.477" gradientUnits="userSpaceOnUse">
<stop stop-color="#03BFC0"/>
<stop offset="1" stop-color="#8C5F80"/>
</linearGradient>
<linearGradient id="paint24_linear_276_151" x1="607.231" y1="387.733" x2="672.964" y2="444.106" gradientUnits="userSpaceOnUse">
<stop stop-color="#03BFC0"/>
<stop offset="1" stop-color="#8C5F80"/>
</linearGradient>
<linearGradient id="paint25_linear_276_151" x1="604.451" y1="386.498" x2="675.322" y2="445.313" gradientUnits="userSpaceOnUse">
<stop stop-color="#03BFC0"/>
<stop offset="1" stop-color="#8C5F80"/>
</linearGradient>
<linearGradient id="paint26_linear_276_151" x1="601.498" y1="384.701" x2="678.411" y2="446.409" gradientUnits="userSpaceOnUse">
<stop stop-color="#03BFC0"/>
<stop offset="1" stop-color="#8C5F80"/>
</linearGradient>
<linearGradient id="paint27_linear_276_151" x1="598.24" y1="383.371" x2="681.718" y2="448.071" gradientUnits="userSpaceOnUse">
<stop stop-color="#03BFC0"/>
<stop offset="1" stop-color="#8C5F80"/>
</linearGradient>
<linearGradient id="paint28_linear_276_151" x1="594.464" y1="381.932" x2="685.454" y2="449.981" gradientUnits="userSpaceOnUse">
<stop stop-color="#03BFC0"/>
<stop offset="1" stop-color="#8C5F80"/>
</linearGradient>
<linearGradient id="paint29_linear_276_151" x1="590.568" y1="380.262" x2="689.248" y2="451.368" gradientUnits="userSpaceOnUse">
<stop stop-color="#03BFC0"/>
<stop offset="1" stop-color="#8C5F80"/>
</linearGradient>
<linearGradient id="paint30_linear_276_151" x1="585.891" y1="378.429" x2="693.664" y2="453.141" gradientUnits="userSpaceOnUse">
<stop stop-color="#03BFC0"/>
<stop offset="1" stop-color="#8C5F80"/>
</linearGradient>
<linearGradient id="paint31_linear_276_151" x1="581.016" y1="376.386" x2="698.929" y2="454.891" gradientUnits="userSpaceOnUse">
<stop stop-color="#03BFC0"/>
<stop offset="1" stop-color="#8C5F80"/>
</linearGradient>
<linearGradient id="paint32_linear_276_151" x1="575.772" y1="374.566" x2="704.469" y2="456.7" gradientUnits="userSpaceOnUse">
<stop stop-color="#03BFC0"/>
<stop offset="1" stop-color="#8C5F80"/>
</linearGradient>
<linearGradient id="paint33_linear_276_151" x1="569.375" y1="372.503" x2="710.799" y2="458.822" gradientUnits="userSpaceOnUse">
<stop stop-color="#03BFC0"/>
<stop offset="1" stop-color="#8C5F80"/>
</linearGradient>
<linearGradient id="paint34_linear_276_151" x1="562.69" y1="370.742" x2="717.55" y2="460.912" gradientUnits="userSpaceOnUse">
<stop stop-color="#03BFC0"/>
<stop offset="1" stop-color="#8C5F80"/>
</linearGradient>
<linearGradient id="paint35_linear_276_151" x1="554.6" y1="368.609" x2="724.934" y2="462.928" gradientUnits="userSpaceOnUse">
<stop stop-color="#03BFC0"/>
<stop offset="1" stop-color="#8C5F80"/>
</linearGradient>
<linearGradient id="paint36_linear_276_151" x1="546.075" y1="366.673" x2="733.984" y2="465.318" gradientUnits="userSpaceOnUse">
<stop stop-color="#03BFC0"/>
<stop offset="1" stop-color="#8C5F80"/>
</linearGradient>
<linearGradient id="paint37_linear_276_151" x1="536.529" y1="364.527" x2="743.73" y2="467.225" gradientUnits="userSpaceOnUse">
<stop stop-color="#03BFC0"/>
<stop offset="1" stop-color="#8C5F80"/>
</linearGradient>
<linearGradient id="paint38_linear_276_151" x1="525.589" y1="362.392" x2="754.729" y2="469.139" gradientUnits="userSpaceOnUse">
<stop stop-color="#03BFC0"/>
<stop offset="1" stop-color="#8C5F80"/>
</linearGradient>
<linearGradient id="paint39_linear_276_151" x1="513.198" y1="360.592" x2="766.51" y2="470.919" gradientUnits="userSpaceOnUse">
<stop stop-color="#03BFC0"/>
<stop offset="1" stop-color="#8C5F80"/>
</linearGradient>
<linearGradient id="paint40_linear_276_151" x1="499.312" y1="359.061" x2="780.468" y2="472.87" gradientUnits="userSpaceOnUse">
<stop stop-color="#03BFC0"/>
<stop offset="1" stop-color="#8C5F80"/>
</linearGradient>
<linearGradient id="paint41_linear_276_151" x1="483.935" y1="357.568" x2="795.76" y2="474.003" gradientUnits="userSpaceOnUse">
<stop stop-color="#03BFC0"/>
<stop offset="1" stop-color="#8C5F80"/>
</linearGradient>
<linearGradient id="paint42_linear_276_151" x1="466.556" y1="356.708" x2="813.279" y2="475.128" gradientUnits="userSpaceOnUse">
<stop stop-color="#03BFC0"/>
<stop offset="1" stop-color="#8C5F80"/>
</linearGradient>
<linearGradient id="paint43_linear_276_151" x1="447.01" y1="356.177" x2="832.934" y2="475.46" gradientUnits="userSpaceOnUse">
<stop stop-color="#03BFC0"/>
<stop offset="1" stop-color="#8C5F80"/>
</linearGradient>
<linearGradient id="paint44_linear_276_151" x1="424.787" y1="356.464" x2="854.672" y2="475.14" gradientUnits="userSpaceOnUse">
<stop stop-color="#03BFC0"/>
<stop offset="1" stop-color="#8C5F80"/>
</linearGradient>
<linearGradient id="paint45_linear_276_151" x1="400.425" y1="357.692" x2="879.557" y2="473.949" gradientUnits="userSpaceOnUse">
<stop stop-color="#03BFC0"/>
<stop offset="1" stop-color="#8C5F80"/>
</linearGradient>
<linearGradient id="paint46_linear_276_151" x1="372.888" y1="360.066" x2="906.969" y2="471.531" gradientUnits="userSpaceOnUse">
<stop stop-color="#03BFC0"/>
<stop offset="1" stop-color="#8C5F80"/>
</linearGradient>
<linearGradient id="paint47_linear_276_151" x1="341.818" y1="363.913" x2="937.959" y2="467.879" gradientUnits="userSpaceOnUse">
<stop stop-color="#03BFC0"/>
<stop offset="1" stop-color="#8C5F80"/>
</linearGradient>
<linearGradient id="paint48_linear_276_151" x1="307.555" y1="369.197" x2="972.341" y2="462.095" gradientUnits="userSpaceOnUse">
<stop stop-color="#03BFC0"/>
<stop offset="1" stop-color="#8C5F80"/>
</linearGradient>
<linearGradient id="paint49_linear_276_151" x1="269.125" y1="376.982" x2="1010.34" y2="454.718" gradientUnits="userSpaceOnUse">
<stop stop-color="#03BFC0"/>
<stop offset="1" stop-color="#8C5F80"/>
</linearGradient>
<linearGradient id="paint50_linear_276_151" x1="227.08" y1="386.778" x2="1052.99" y2="444.53" gradientUnits="userSpaceOnUse">
<stop stop-color="#03BFC0"/>
<stop offset="1" stop-color="#8C5F80"/>
</linearGradient>
<linearGradient id="paint51_linear_276_151" x1="640" y1="-44.1858" x2="640" y2="875.814" gradientUnits="userSpaceOnUse">
<stop stop-color="#03BFC0"/>
<stop offset="1" stop-color="#8C5F80"/>
</linearGradient>
</defs>
</svg>
