<svg width="531" height="653" viewBox="0 0 531 653" fill="none" xmlns="http://www.w3.org/2000/svg">
<g clip-path="url(#clip0_460_50)">
<g opacity="0.15">
<path d="M368.661 327.872L376.295 321.547L383.93 315.003L385.675 324.819L387.42 334.634L378.04 331.362L368.661 327.872Z" stroke="url(#paint0_linear_460_50)" stroke-width="2" stroke-miterlimit="10"/>
<path d="M368.006 327.654L376.513 321.111L384.801 314.567L386.328 325.037L387.855 335.725L377.821 331.799L368.006 327.654Z" stroke="url(#paint1_linear_460_50)" stroke-width="2" stroke-miterlimit="10"/>
<path d="M367.133 327.436L376.513 320.675L385.892 313.913L386.982 325.255L388.291 336.816L377.821 332.235L367.133 327.436Z" stroke="url(#paint2_linear_460_50)" stroke-width="2" stroke-miterlimit="10"/>
<path d="M366.479 327.218L376.73 320.238L386.983 313.258L387.855 325.691L388.728 337.906L377.604 332.671L366.479 327.218Z" stroke="url(#paint3_linear_460_50)" stroke-width="2" stroke-miterlimit="10"/>
<path d="M365.606 326.782L376.949 319.802L388.291 312.604L388.727 325.909L389.163 339.215L377.385 333.107L365.606 326.782Z" stroke="url(#paint4_linear_460_50)" stroke-width="2" stroke-miterlimit="10"/>
<path d="M364.735 326.346L377.168 319.148L389.601 312.168V326.346V340.742L377.168 333.544L364.735 326.346Z" stroke="url(#paint5_linear_460_50)" stroke-width="2" stroke-miterlimit="10"/>
<path d="M363.862 325.909L377.386 318.711L391.127 311.513L390.473 326.782L390.037 342.269L376.95 334.198L363.862 325.909Z" stroke="url(#paint6_linear_460_50)" stroke-width="2" stroke-miterlimit="10"/>
<path d="M362.772 325.473L377.822 318.057L392.655 310.859L391.564 327.436L390.255 344.013L376.514 334.634L362.772 325.473Z" stroke="url(#paint7_linear_460_50)" stroke-width="2" stroke-miterlimit="10"/>
<path d="M361.899 324.819L378.04 317.621L394.399 310.205L392.436 328.091L390.691 345.758L376.295 335.289L361.899 324.819Z" stroke="url(#paint8_linear_460_50)" stroke-width="2" stroke-miterlimit="10"/>
<path d="M360.809 324.164L378.477 316.966L396.363 309.768L393.527 328.745L390.91 347.721L375.859 335.943L360.809 324.164Z" stroke="url(#paint9_linear_460_50)" stroke-width="2" stroke-miterlimit="10"/>
<path d="M359.719 323.292L378.913 316.312L398.326 309.332L394.836 329.399L391.128 349.685L375.423 336.597L359.719 323.292Z" stroke="url(#paint10_linear_460_50)" stroke-width="2" stroke-miterlimit="10"/>
<path d="M358.41 322.419L379.567 315.658L400.507 308.678L395.926 330.49L391.346 352.084L374.769 337.252L358.41 322.419Z" stroke="url(#paint11_linear_460_50)" stroke-width="2" stroke-miterlimit="10"/>
<path d="M357.101 321.329L380.003 314.785L402.906 308.242L397.235 331.362L391.346 354.483L374.332 337.906L357.101 321.329Z" stroke="url(#paint12_linear_460_50)" stroke-width="2" stroke-miterlimit="10"/>
<path d="M355.793 320.238L380.659 314.131L405.524 308.023L398.545 332.453L391.347 357.101L373.679 338.778L355.793 320.238Z" stroke="url(#paint13_linear_460_50)" stroke-width="2" stroke-miterlimit="10"/>
<path d="M354.482 319.148L381.529 313.258L408.358 307.587L399.852 333.762L391.345 359.936L373.023 339.433L354.482 319.148Z" stroke="url(#paint14_linear_460_50)" stroke-width="2" stroke-miterlimit="10"/>
<path d="M353.174 317.621L382.184 312.604L411.413 307.369L401.161 335.289L391.127 362.99L372.151 340.305L353.174 317.621Z" stroke="url(#paint15_linear_460_50)" stroke-width="2" stroke-miterlimit="10"/>
<path d="M351.648 316.094L383.057 311.732L414.685 307.151L402.688 336.816L390.91 366.262L371.279 341.178L351.648 316.094Z" stroke="url(#paint16_linear_460_50)" stroke-width="2" stroke-miterlimit="10"/>
<path d="M350.121 314.349L384.148 310.859L418.175 307.151L404.215 338.56L390.255 369.752L370.188 342.05L350.121 314.349Z" stroke="url(#paint17_linear_460_50)" stroke-width="2" stroke-miterlimit="10"/>
<path d="M348.595 312.386L385.239 309.987L421.883 307.369L405.742 340.305L389.601 373.46L369.098 342.923L348.595 312.386Z" stroke="url(#paint18_linear_460_50)" stroke-width="2" stroke-miterlimit="10"/>
<path d="M346.849 310.423L386.547 308.896L426.027 307.587L407.487 342.487L388.946 377.386L368.007 343.795L346.849 310.423Z" stroke="url(#paint19_linear_460_50)" stroke-width="2" stroke-miterlimit="10"/>
<path d="M345.322 308.023H387.856H430.389L409.014 344.886L387.856 381.748L366.48 344.886L345.322 308.023Z" stroke="url(#paint20_linear_460_50)" stroke-width="2" stroke-miterlimit="10"/>
<path d="M343.577 305.406L389.383 307.151L434.97 308.678L410.758 347.503L386.547 386.111L365.171 345.758L343.577 305.406Z" stroke="url(#paint21_linear_460_50)" stroke-width="2" stroke-miterlimit="10"/>
<path d="M341.832 302.571L390.909 306.06L439.986 309.55L412.503 350.339L385.019 391.128L363.426 346.849L341.832 302.571Z" stroke="url(#paint22_linear_460_50)" stroke-width="2" stroke-miterlimit="10"/>
<path d="M340.087 299.517L392.655 304.97L445.44 310.641L414.248 353.393L383.275 396.144L361.681 347.94L340.087 299.517Z" stroke="url(#paint23_linear_460_50)" stroke-width="2" stroke-miterlimit="10"/>
<path d="M338.342 296.027L394.617 304.097L451.11 311.95L415.993 356.664L381.093 401.597L359.718 348.812L338.342 296.027Z" stroke="url(#paint24_linear_460_50)" stroke-width="2" stroke-miterlimit="10"/>
<path d="M336.598 292.319L396.799 303.007L457 313.695L417.739 360.591L378.477 407.268L357.537 349.903L336.598 292.319Z" stroke="url(#paint25_linear_460_50)" stroke-width="2" stroke-miterlimit="10"/>
<path d="M334.852 288.393L399.198 302.134L463.543 315.658L419.483 364.517L375.641 413.376L355.137 350.993L334.852 288.393Z" stroke="url(#paint26_linear_460_50)" stroke-width="2" stroke-miterlimit="10"/>
<path d="M333.106 284.03L401.815 301.044L470.304 318.057L421.227 369.097L372.15 419.92L352.737 351.866L333.106 284.03Z" stroke="url(#paint27_linear_460_50)" stroke-width="2" stroke-miterlimit="10"/>
<path d="M331.58 279.232L404.651 300.171L477.721 321.111L422.973 373.896L368.224 426.681L349.902 352.956L331.58 279.232Z" stroke="url(#paint28_linear_460_50)" stroke-width="2" stroke-miterlimit="10"/>
<path d="M329.836 273.779L407.487 299.081L485.356 324.383L424.5 379.131L363.863 433.879L346.849 353.829L329.836 273.779Z" stroke="url(#paint29_linear_460_50)" stroke-width="2" stroke-miterlimit="10"/>
<path d="M328.309 268.107L410.977 298.208L493.427 328.309L426.245 384.802L358.846 441.295L343.578 354.701L328.309 268.107Z" stroke="url(#paint30_linear_460_50)" stroke-width="2" stroke-miterlimit="10"/>
<path d="M326.781 262L414.466 297.336L502.15 332.889L427.553 390.909L353.174 449.148L340.087 355.574L326.781 262Z" stroke="url(#paint31_linear_460_50)" stroke-width="2" stroke-miterlimit="10"/>
<path d="M325.473 255.238L418.393 296.681L511.094 337.906L428.862 397.671L346.849 457.436L336.161 356.446L325.473 255.238Z" stroke="url(#paint32_linear_460_50)" stroke-width="2" stroke-miterlimit="10"/>
<path d="M324.382 248.04L422.536 296.027L520.691 343.795L430.17 405.087L339.65 466.161L332.016 357.101L324.382 248.04Z" stroke="url(#paint33_linear_460_50)" stroke-width="2" stroke-miterlimit="10"/>
<path d="M323.293 240.188L427.119 295.373L530.726 350.557L431.045 412.94L331.582 475.104L327.437 357.755L323.293 240.188Z" stroke="url(#paint34_linear_460_50)" stroke-width="2" stroke-miterlimit="10"/>
<path d="M322.636 231.899L431.915 294.936L541.411 358.191L431.915 421.228L322.636 484.483V358.191V231.899Z" stroke="url(#paint35_linear_460_50)" stroke-width="2" stroke-miterlimit="10"/>
<path d="M321.983 222.738L437.15 294.718L552.318 366.698L432.57 430.389L312.604 494.299L317.184 358.409L321.983 222.738Z" stroke="url(#paint36_linear_460_50)" stroke-width="2" stroke-miterlimit="10"/>
<path d="M321.765 212.923L442.822 294.5L563.879 376.295L432.788 440.205L301.479 504.332L311.513 358.628L321.765 212.923Z" stroke="url(#paint37_linear_460_50)" stroke-width="2" stroke-miterlimit="10"/>
<path d="M321.984 202.453L448.93 294.718L576.094 386.983L432.571 450.893L289.047 514.802L305.406 358.628L321.984 202.453Z" stroke="url(#paint38_linear_460_50)" stroke-width="2" stroke-miterlimit="10"/>
<path d="M322.419 191.111L455.473 294.936L588.527 398.98L431.916 462.235L275.523 525.49L298.862 358.191L322.419 191.111Z" stroke="url(#paint39_linear_460_50)" stroke-width="2" stroke-miterlimit="10"/>
<path d="M323.51 178.896L462.453 295.591L601.614 412.285L431.044 474.45L260.473 536.614L291.883 357.755L323.51 178.896Z" stroke="url(#paint40_linear_460_50)" stroke-width="2" stroke-miterlimit="10"/>
<path d="M325.037 165.809L470.087 296.463L615.137 427.117L429.517 487.537L243.678 547.738L284.466 356.883L325.037 165.809Z" stroke="url(#paint41_linear_460_50)" stroke-width="2" stroke-miterlimit="10"/>
<path d="M327 151.849L478.158 297.772L629.098 443.695L427.336 501.497L225.574 559.299L276.396 355.574L327 151.849Z" stroke="url(#paint42_linear_460_50)" stroke-width="2" stroke-miterlimit="10"/>
<path d="M329.835 137.017L486.664 299.517L643.492 461.799L424.499 516.329L205.506 571.077L267.67 354.047L329.835 137.017Z" stroke="url(#paint43_linear_460_50)" stroke-width="2" stroke-miterlimit="10"/>
<path d="M333.544 121.094L496.044 301.48L658.326 481.866L421.01 532.47L183.477 582.856L258.51 352.084L333.544 121.094Z" stroke="url(#paint44_linear_460_50)" stroke-width="2" stroke-miterlimit="10"/>
<path d="M337.905 104.08L505.64 304.097L673.593 504.114L416.429 549.483L159.482 594.634L248.694 349.466L337.905 104.08Z" stroke="url(#paint45_linear_460_50)" stroke-width="2" stroke-miterlimit="10"/>
<path d="M343.359 86.1948L516.111 307.369L689.08 528.544L410.976 567.587L133.09 606.631L238.225 346.413L343.359 86.1948Z" stroke="url(#paint46_linear_460_50)" stroke-width="2" stroke-miterlimit="10"/>
<path d="M349.903 67L527.235 311.077L704.567 555.154L404.433 586.782L104.299 618.409L227.101 342.705L349.903 67Z" stroke="url(#paint47_linear_460_50)" stroke-width="2" stroke-miterlimit="10"/>
<path d="M357.536 46.4966L539.013 315.658L720.491 584.601L396.799 607.285L73.1074 629.97L215.323 338.124L357.536 46.4966Z" stroke="url(#paint48_linear_460_50)" stroke-width="2" stroke-miterlimit="10"/>
<path d="M366.698 24.9028L551.446 320.893L736.413 616.665L387.638 628.879L38.8623 641.094L202.889 332.889L366.698 24.9028Z" stroke="url(#paint49_linear_460_50)" stroke-width="2" stroke-miterlimit="10"/>
<path d="M377.168 2L564.752 327L752.336 652H377.168H2L189.584 327L377.168 2Z" stroke="url(#paint50_linear_460_50)" stroke-width="2" stroke-miterlimit="10"/>
</g>
</g>
<defs>
<linearGradient id="paint0_linear_460_50" x1="378.04" y1="315.003" x2="378.04" y2="334.634" gradientUnits="userSpaceOnUse">
<stop stop-color="#FFF3EC"/>
<stop offset="1" stop-color="#0A0708"/>
</linearGradient>
<linearGradient id="paint1_linear_460_50" x1="377.93" y1="314.567" x2="377.93" y2="335.725" gradientUnits="userSpaceOnUse">
<stop stop-color="#FFF3EC"/>
<stop offset="1" stop-color="#0A0708"/>
</linearGradient>
<linearGradient id="paint2_linear_460_50" x1="377.712" y1="313.913" x2="377.712" y2="336.816" gradientUnits="userSpaceOnUse">
<stop stop-color="#FFF3EC"/>
<stop offset="1" stop-color="#0A0708"/>
</linearGradient>
<linearGradient id="paint3_linear_460_50" x1="377.604" y1="313.258" x2="377.604" y2="337.906" gradientUnits="userSpaceOnUse">
<stop stop-color="#FFF3EC"/>
<stop offset="1" stop-color="#0A0708"/>
</linearGradient>
<linearGradient id="paint4_linear_460_50" x1="377.385" y1="312.604" x2="377.385" y2="339.215" gradientUnits="userSpaceOnUse">
<stop stop-color="#FFF3EC"/>
<stop offset="1" stop-color="#0A0708"/>
</linearGradient>
<linearGradient id="paint5_linear_460_50" x1="377.168" y1="312.168" x2="377.168" y2="340.742" gradientUnits="userSpaceOnUse">
<stop stop-color="#FFF3EC"/>
<stop offset="1" stop-color="#0A0708"/>
</linearGradient>
<linearGradient id="paint6_linear_460_50" x1="377.495" y1="311.513" x2="377.495" y2="342.269" gradientUnits="userSpaceOnUse">
<stop stop-color="#FFF3EC"/>
<stop offset="1" stop-color="#0A0708"/>
</linearGradient>
<linearGradient id="paint7_linear_460_50" x1="377.713" y1="310.859" x2="377.713" y2="344.013" gradientUnits="userSpaceOnUse">
<stop stop-color="#FFF3EC"/>
<stop offset="1" stop-color="#0A0708"/>
</linearGradient>
<linearGradient id="paint8_linear_460_50" x1="378.149" y1="310.205" x2="378.149" y2="345.758" gradientUnits="userSpaceOnUse">
<stop stop-color="#FFF3EC"/>
<stop offset="1" stop-color="#0A0708"/>
</linearGradient>
<linearGradient id="paint9_linear_460_50" x1="378.586" y1="309.768" x2="378.586" y2="347.721" gradientUnits="userSpaceOnUse">
<stop stop-color="#FFF3EC"/>
<stop offset="1" stop-color="#0A0708"/>
</linearGradient>
<linearGradient id="paint10_linear_460_50" x1="379.022" y1="309.332" x2="379.022" y2="349.685" gradientUnits="userSpaceOnUse">
<stop stop-color="#FFF3EC"/>
<stop offset="1" stop-color="#0A0708"/>
</linearGradient>
<linearGradient id="paint11_linear_460_50" x1="379.458" y1="308.678" x2="379.458" y2="352.084" gradientUnits="userSpaceOnUse">
<stop stop-color="#FFF3EC"/>
<stop offset="1" stop-color="#0A0708"/>
</linearGradient>
<linearGradient id="paint12_linear_460_50" x1="380.003" y1="308.242" x2="380.003" y2="354.483" gradientUnits="userSpaceOnUse">
<stop stop-color="#FFF3EC"/>
<stop offset="1" stop-color="#0A0708"/>
</linearGradient>
<linearGradient id="paint13_linear_460_50" x1="380.659" y1="308.023" x2="380.659" y2="357.101" gradientUnits="userSpaceOnUse">
<stop stop-color="#FFF3EC"/>
<stop offset="1" stop-color="#0A0708"/>
</linearGradient>
<linearGradient id="paint14_linear_460_50" x1="381.42" y1="307.587" x2="381.42" y2="359.936" gradientUnits="userSpaceOnUse">
<stop stop-color="#FFF3EC"/>
<stop offset="1" stop-color="#0A0708"/>
</linearGradient>
<linearGradient id="paint15_linear_460_50" x1="382.293" y1="307.369" x2="382.293" y2="362.99" gradientUnits="userSpaceOnUse">
<stop stop-color="#FFF3EC"/>
<stop offset="1" stop-color="#0A0708"/>
</linearGradient>
<linearGradient id="paint16_linear_460_50" x1="383.166" y1="307.151" x2="383.166" y2="366.262" gradientUnits="userSpaceOnUse">
<stop stop-color="#FFF3EC"/>
<stop offset="1" stop-color="#0A0708"/>
</linearGradient>
<linearGradient id="paint17_linear_460_50" x1="384.148" y1="307.151" x2="384.148" y2="369.752" gradientUnits="userSpaceOnUse">
<stop stop-color="#FFF3EC"/>
<stop offset="1" stop-color="#0A0708"/>
</linearGradient>
<linearGradient id="paint18_linear_460_50" x1="385.239" y1="307.369" x2="385.239" y2="373.46" gradientUnits="userSpaceOnUse">
<stop stop-color="#FFF3EC"/>
<stop offset="1" stop-color="#0A0708"/>
</linearGradient>
<linearGradient id="paint19_linear_460_50" x1="386.438" y1="307.587" x2="386.438" y2="377.386" gradientUnits="userSpaceOnUse">
<stop stop-color="#FFF3EC"/>
<stop offset="1" stop-color="#0A0708"/>
</linearGradient>
<linearGradient id="paint20_linear_460_50" x1="387.856" y1="308.023" x2="387.856" y2="381.748" gradientUnits="userSpaceOnUse">
<stop stop-color="#FFF3EC"/>
<stop offset="1" stop-color="#0A0708"/>
</linearGradient>
<linearGradient id="paint21_linear_460_50" x1="389.273" y1="305.406" x2="389.273" y2="386.111" gradientUnits="userSpaceOnUse">
<stop stop-color="#FFF3EC"/>
<stop offset="1" stop-color="#0A0708"/>
</linearGradient>
<linearGradient id="paint22_linear_460_50" x1="390.909" y1="302.571" x2="390.909" y2="391.128" gradientUnits="userSpaceOnUse">
<stop stop-color="#FFF3EC"/>
<stop offset="1" stop-color="#0A0708"/>
</linearGradient>
<linearGradient id="paint23_linear_460_50" x1="392.764" y1="299.517" x2="392.764" y2="396.144" gradientUnits="userSpaceOnUse">
<stop stop-color="#FFF3EC"/>
<stop offset="1" stop-color="#0A0708"/>
</linearGradient>
<linearGradient id="paint24_linear_460_50" x1="394.726" y1="296.027" x2="394.726" y2="401.597" gradientUnits="userSpaceOnUse">
<stop stop-color="#FFF3EC"/>
<stop offset="1" stop-color="#0A0708"/>
</linearGradient>
<linearGradient id="paint25_linear_460_50" x1="396.799" y1="292.319" x2="396.799" y2="407.268" gradientUnits="userSpaceOnUse">
<stop stop-color="#FFF3EC"/>
<stop offset="1" stop-color="#0A0708"/>
</linearGradient>
<linearGradient id="paint26_linear_460_50" x1="399.198" y1="288.393" x2="399.198" y2="413.376" gradientUnits="userSpaceOnUse">
<stop stop-color="#FFF3EC"/>
<stop offset="1" stop-color="#0A0708"/>
</linearGradient>
<linearGradient id="paint27_linear_460_50" x1="401.705" y1="284.03" x2="401.705" y2="419.92" gradientUnits="userSpaceOnUse">
<stop stop-color="#FFF3EC"/>
<stop offset="1" stop-color="#0A0708"/>
</linearGradient>
<linearGradient id="paint28_linear_460_50" x1="404.651" y1="279.232" x2="404.651" y2="426.681" gradientUnits="userSpaceOnUse">
<stop stop-color="#FFF3EC"/>
<stop offset="1" stop-color="#0A0708"/>
</linearGradient>
<linearGradient id="paint29_linear_460_50" x1="407.596" y1="273.779" x2="407.596" y2="433.879" gradientUnits="userSpaceOnUse">
<stop stop-color="#FFF3EC"/>
<stop offset="1" stop-color="#0A0708"/>
</linearGradient>
<linearGradient id="paint30_linear_460_50" x1="410.868" y1="268.107" x2="410.868" y2="441.295" gradientUnits="userSpaceOnUse">
<stop stop-color="#FFF3EC"/>
<stop offset="1" stop-color="#0A0708"/>
</linearGradient>
<linearGradient id="paint31_linear_460_50" x1="414.466" y1="262" x2="414.466" y2="449.148" gradientUnits="userSpaceOnUse">
<stop stop-color="#FFF3EC"/>
<stop offset="1" stop-color="#0A0708"/>
</linearGradient>
<linearGradient id="paint32_linear_460_50" x1="418.284" y1="255.238" x2="418.284" y2="457.436" gradientUnits="userSpaceOnUse">
<stop stop-color="#FFF3EC"/>
<stop offset="1" stop-color="#0A0708"/>
</linearGradient>
<linearGradient id="paint33_linear_460_50" x1="422.536" y1="248.04" x2="422.536" y2="466.161" gradientUnits="userSpaceOnUse">
<stop stop-color="#FFF3EC"/>
<stop offset="1" stop-color="#0A0708"/>
</linearGradient>
<linearGradient id="paint34_linear_460_50" x1="427.009" y1="240.188" x2="427.009" y2="475.104" gradientUnits="userSpaceOnUse">
<stop stop-color="#FFF3EC"/>
<stop offset="1" stop-color="#0A0708"/>
</linearGradient>
<linearGradient id="paint35_linear_460_50" x1="432.024" y1="231.899" x2="432.024" y2="484.483" gradientUnits="userSpaceOnUse">
<stop stop-color="#FFF3EC"/>
<stop offset="1" stop-color="#0A0708"/>
</linearGradient>
<linearGradient id="paint36_linear_460_50" x1="432.461" y1="222.738" x2="432.461" y2="494.299" gradientUnits="userSpaceOnUse">
<stop stop-color="#FFF3EC"/>
<stop offset="1" stop-color="#0A0708"/>
</linearGradient>
<linearGradient id="paint37_linear_460_50" x1="432.679" y1="212.923" x2="432.679" y2="504.332" gradientUnits="userSpaceOnUse">
<stop stop-color="#FFF3EC"/>
<stop offset="1" stop-color="#0A0708"/>
</linearGradient>
<linearGradient id="paint38_linear_460_50" x1="432.571" y1="202.453" x2="432.571" y2="514.802" gradientUnits="userSpaceOnUse">
<stop stop-color="#FFF3EC"/>
<stop offset="1" stop-color="#0A0708"/>
</linearGradient>
<linearGradient id="paint39_linear_460_50" x1="432.025" y1="191.111" x2="432.025" y2="525.49" gradientUnits="userSpaceOnUse">
<stop stop-color="#FFF3EC"/>
<stop offset="1" stop-color="#0A0708"/>
</linearGradient>
<linearGradient id="paint40_linear_460_50" x1="431.044" y1="178.896" x2="431.044" y2="536.614" gradientUnits="userSpaceOnUse">
<stop stop-color="#FFF3EC"/>
<stop offset="1" stop-color="#0A0708"/>
</linearGradient>
<linearGradient id="paint41_linear_460_50" x1="429.408" y1="165.809" x2="429.408" y2="547.738" gradientUnits="userSpaceOnUse">
<stop stop-color="#FFF3EC"/>
<stop offset="1" stop-color="#0A0708"/>
</linearGradient>
<linearGradient id="paint42_linear_460_50" x1="427.336" y1="151.849" x2="427.336" y2="559.299" gradientUnits="userSpaceOnUse">
<stop stop-color="#FFF3EC"/>
<stop offset="1" stop-color="#0A0708"/>
</linearGradient>
<linearGradient id="paint43_linear_460_50" x1="424.499" y1="137.017" x2="424.499" y2="571.077" gradientUnits="userSpaceOnUse">
<stop stop-color="#FFF3EC"/>
<stop offset="1" stop-color="#0A0708"/>
</linearGradient>
<linearGradient id="paint44_linear_460_50" x1="420.901" y1="121.094" x2="420.901" y2="582.856" gradientUnits="userSpaceOnUse">
<stop stop-color="#FFF3EC"/>
<stop offset="1" stop-color="#0A0708"/>
</linearGradient>
<linearGradient id="paint45_linear_460_50" x1="416.538" y1="104.08" x2="416.538" y2="594.634" gradientUnits="userSpaceOnUse">
<stop stop-color="#FFF3EC"/>
<stop offset="1" stop-color="#0A0708"/>
</linearGradient>
<linearGradient id="paint46_linear_460_50" x1="411.085" y1="86.1948" x2="411.085" y2="606.631" gradientUnits="userSpaceOnUse">
<stop stop-color="#FFF3EC"/>
<stop offset="1" stop-color="#0A0708"/>
</linearGradient>
<linearGradient id="paint47_linear_460_50" x1="404.433" y1="67" x2="404.433" y2="618.409" gradientUnits="userSpaceOnUse">
<stop stop-color="#FFF3EC"/>
<stop offset="1" stop-color="#0A0708"/>
</linearGradient>
<linearGradient id="paint48_linear_460_50" x1="396.799" y1="46.4966" x2="396.799" y2="629.97" gradientUnits="userSpaceOnUse">
<stop stop-color="#FFF3EC"/>
<stop offset="1" stop-color="#0A0708"/>
</linearGradient>
<linearGradient id="paint49_linear_460_50" x1="387.638" y1="24.9028" x2="387.638" y2="641.094" gradientUnits="userSpaceOnUse">
<stop stop-color="#FFF3EC"/>
<stop offset="1" stop-color="#0A0708"/>
</linearGradient>
<linearGradient id="paint50_linear_460_50" x1="377.168" y1="2" x2="377.168" y2="652" gradientUnits="userSpaceOnUse">
<stop stop-color="#FFF3EC"/>
<stop offset="1" stop-color="#0A0708"/>
</linearGradient>
<clipPath id="clip0_460_50">
<rect width="531" height="653" fill="white"/>
</clipPath>
</defs>
</svg>
